<svg width="640" height="619" viewBox="0 0 640 619" fill="none" xmlns="http://www.w3.org/2000/svg">
<g opacity="0.3">
<path d="M480.363 301.933C444.993 269.26 401.867 210.657 449.987 187.909C471.214 177.876 488.039 162.777 491.957 137.651C496.109 111.038 492.681 81.067 525.001 75.7951C545.785 72.4135 570.819 79.853 587.86 92.4596C637.901 129.461 653.069 211.729 625.607 267.529C603.366 312.717 554.539 349.134 506.462 322.145C499.93 318.48 490.463 311.263 480.363 301.933Z" fill="white"/>
<path d="M540.329 332.196C528.658 332.196 517.196 329.068 506.078 322.829C499.201 318.967 489.633 311.561 479.834 302.509C452.166 276.947 424.075 240.033 428.207 213.092C429.932 201.825 437.15 193.114 449.654 187.202C474.198 175.604 487.78 159.355 491.184 137.533C491.895 132.988 492.388 128.281 492.875 123.73C495.262 100.978 497.517 79.4881 524.888 75.0345C544.837 71.778 570.337 78.5345 588.338 91.8411C612.345 109.605 629.494 138.358 636.574 172.797C643.417 206.082 639.681 240.74 626.319 267.884C611.465 298.068 587.098 320.894 561.171 328.946C554.428 331.076 547.401 332.172 540.329 332.196ZM480.896 301.359C490.61 310.33 500.067 317.662 506.846 321.462C524.12 331.161 542.24 333.17 560.698 327.441C586.235 319.515 610.238 296.986 624.906 267.184C653.04 210.035 635.512 128.667 587.395 93.0889C569.715 80.0156 544.691 73.3775 525.128 76.5697C498.937 80.8407 496.743 101.753 494.424 123.892C493.944 128.464 493.446 133.191 492.733 137.773C489.25 160.146 475.388 176.777 450.323 188.619C438.317 194.294 431.389 202.606 429.752 213.329C425.715 239.665 453.525 276.068 480.896 301.359Z" fill="#898888"/>
<path d="M544.142 432.839C543.935 432.838 543.736 432.755 543.59 432.608C543.443 432.461 543.361 432.262 543.361 432.055V221.735C543.354 221.628 543.369 221.521 543.405 221.42C543.441 221.319 543.498 221.226 543.571 221.148C543.645 221.069 543.733 221.007 543.832 220.964C543.93 220.921 544.036 220.899 544.144 220.899C544.251 220.899 544.357 220.921 544.456 220.964C544.554 221.007 544.643 221.069 544.716 221.148C544.79 221.226 544.846 221.319 544.882 221.42C544.919 221.521 544.934 221.628 544.927 221.735V432.071C544.922 432.277 544.837 432.472 544.691 432.615C544.544 432.759 544.347 432.839 544.142 432.839Z" fill="#898888"/>
<path d="M543.112 277.356C542.977 277.359 542.844 277.326 542.726 277.262C542.607 277.198 542.507 277.105 542.435 276.991L513.976 231.829C513.866 231.654 513.829 231.442 513.875 231.24C513.92 231.037 514.044 230.862 514.22 230.751C514.395 230.64 514.607 230.603 514.809 230.649C515.012 230.695 515.188 230.819 515.298 230.994L543.757 276.156C543.832 276.275 543.873 276.413 543.877 276.554C543.88 276.695 543.845 276.834 543.776 276.957C543.707 277.08 543.606 277.181 543.483 277.252C543.361 277.322 543.222 277.358 543.081 277.356H543.112Z" fill="#898888"/>
<path d="M575.284 199.291C575.149 199.29 575.017 199.254 574.9 199.186C574.784 199.118 574.687 199.021 574.619 198.905C574.55 198.788 574.514 198.656 574.512 198.521C574.51 198.386 574.543 198.253 574.608 198.135L595.642 159.426C595.687 159.329 595.752 159.242 595.832 159.171C595.912 159.1 596.006 159.046 596.107 159.012C596.209 158.979 596.316 158.966 596.423 158.976C596.53 158.985 596.633 159.017 596.727 159.068C596.821 159.119 596.904 159.189 596.97 159.273C597.036 159.357 597.084 159.454 597.112 159.558C597.139 159.661 597.144 159.769 597.128 159.875C597.112 159.981 597.075 160.082 597.018 160.173L575.984 198.882C575.915 199.008 575.814 199.112 575.691 199.184C575.567 199.256 575.427 199.293 575.284 199.291Z" fill="#898888"/>
<path d="M586.419 260.904C586.256 260.904 586.097 260.852 585.964 260.757C585.832 260.662 585.732 260.528 585.679 260.373C585.626 260.219 585.623 260.052 585.669 259.895C585.716 259.739 585.81 259.601 585.939 259.501L607.578 242.728C607.742 242.601 607.95 242.544 608.156 242.571C608.362 242.597 608.549 242.704 608.676 242.868C608.802 243.032 608.859 243.24 608.833 243.446C608.806 243.652 608.699 243.839 608.535 243.966L586.896 260.738C586.76 260.845 586.592 260.903 586.419 260.904Z" fill="#898888"/>
<path d="M154.262 314.13C171.022 296.756 187.356 242.319 160.449 205.672C139.929 177.723 142.161 169.651 138.448 145.324C134.736 120.997 125.823 81.6989 99.8389 72.5753C73.8547 63.4518 56.9185 112.478 45.7844 161.136C34.6503 209.794 5.45747 230.71 28.0604 283.212C43.847 319.896 101.469 368.865 154.262 314.13Z" fill="white"/>
<path d="M103.207 339.388C99.5459 339.38 95.8929 339.04 92.2928 338.374C62.843 333.001 37.3221 306.705 27.3375 283.507C11.693 247.182 20.8322 225.432 31.4186 200.245C36.399 188.41 41.5451 176.151 45.0209 160.965C56.6589 110.115 69.5816 81.3919 84.5263 73.1476C89.5067 70.3983 94.7441 69.9587 100.1 71.8389C119.68 78.7137 132.843 103.399 139.223 145.22C139.822 149.146 140.275 152.72 140.677 155.875C142.811 172.678 143.984 181.937 161.082 205.223C173.021 221.485 177.788 243.513 174.505 267.249C171.855 286.419 164.132 305.041 154.827 314.686C139.101 330.975 121.442 339.388 103.207 339.388ZM93.6554 72.2684C90.7163 72.2892 87.8316 73.0635 85.2769 74.5171C70.738 82.5349 58.0756 110.927 46.5458 161.313C43.043 176.632 37.8664 188.944 32.8623 200.851C21.975 226.733 13.3937 247.175 28.7745 282.905C38.5968 305.721 63.6646 331.577 92.5734 336.849C114.399 340.832 134.97 333.004 153.701 313.587C170.719 295.945 185.967 241.748 159.821 206.136C142.483 182.522 141.289 173.121 139.125 156.058C138.726 152.913 138.273 149.349 137.675 145.443C131.389 104.238 118.571 79.9852 99.5791 73.3167C97.6784 72.6333 95.6752 72.2788 93.6554 72.2684Z" fill="#898888"/>
<path d="M92.0185 428.307C91.8125 428.307 91.615 428.225 91.4683 428.08C91.3217 427.935 91.2376 427.739 91.2341 427.533L87.6095 162.604C87.6077 162.501 87.6263 162.399 87.6641 162.303C87.7019 162.208 87.7582 162.121 87.8299 162.047C87.9015 161.973 87.987 161.914 88.0815 161.873C88.1759 161.833 88.2775 161.811 88.3804 161.81C88.5864 161.81 88.784 161.891 88.9303 162.036C89.0766 162.181 89.1597 162.378 89.1614 162.584L92.7996 427.519C92.8013 427.622 92.7828 427.725 92.745 427.82C92.7072 427.916 92.6508 428.003 92.5792 428.077C92.5076 428.151 92.4221 428.21 92.3276 428.25C92.2331 428.291 92.1315 428.313 92.0287 428.314L92.0185 428.307Z" fill="#898888"/>
<path d="M4.35938 423.462C39.7296 521.288 147.223 597.574 256.329 614.959C396.234 637.251 552.812 564.333 614.626 423.462H4.35938Z" fill="white"/>
<path d="M614.629 424.246H4.36186C4.16316 424.233 3.97686 424.145 3.84075 424C3.70464 423.854 3.62891 423.663 3.62891 423.464C3.62891 423.264 3.70464 423.073 3.84075 422.927C3.97686 422.782 4.16316 422.694 4.36186 422.681H614.629C614.828 422.694 615.014 422.782 615.15 422.927C615.286 423.073 615.362 423.264 615.362 423.464C615.362 423.663 615.286 423.854 615.15 424C615.014 424.145 614.828 424.233 614.629 424.246Z" fill="#898888"/>
<path d="M303.138 116.686C321.595 116.686 336.557 101.721 336.557 83.2617C336.557 64.8022 321.595 49.8379 303.138 49.8379C284.681 49.8379 269.719 64.8022 269.719 83.2617C269.719 101.721 284.681 116.686 303.138 116.686Z" fill="white"/>
<path d="M303.137 117.469C296.371 117.47 289.758 115.464 284.132 111.705C278.507 107.946 274.122 102.603 271.533 96.3521C268.944 90.1008 268.267 83.222 269.587 76.5857C270.907 69.9495 274.166 63.8538 278.95 59.0698C283.734 54.2857 289.83 51.0281 296.466 49.7091C303.101 48.39 309.979 49.0687 316.229 51.6593C322.479 54.2499 327.82 58.636 331.577 64.263C335.335 69.8899 337.339 76.5049 337.337 83.2712C337.325 92.3385 333.717 101.031 327.306 107.442C320.895 113.852 312.203 117.459 303.137 117.469ZM303.137 50.6184C296.682 50.6184 290.372 52.5326 285.005 56.119C279.638 59.7054 275.455 64.8029 272.984 70.767C270.513 76.731 269.866 83.2939 271.125 89.6256C272.383 95.9574 275.491 101.774 280.054 106.339C284.618 110.905 290.433 114.015 296.763 115.275C303.094 116.536 309.656 115.891 315.62 113.422C321.584 110.953 326.682 106.771 330.27 101.404C333.857 96.0371 335.773 89.7269 335.775 83.2712C335.767 74.6154 332.326 66.3163 326.207 60.1947C320.088 54.0731 311.791 50.6292 303.137 50.6184Z" fill="#898888"/>
<path d="M303.323 100.075C303.161 100.176 302.975 100.232 302.784 100.237C302.593 100.241 302.405 100.195 302.238 100.102C299.293 98.4552 285.626 90.221 286.164 79.4506C286.729 68.0681 299.076 70.0429 302.126 75.6463C302.183 75.7503 302.268 75.8362 302.372 75.8939C302.476 75.9516 302.593 75.9789 302.712 75.9725C302.83 75.9662 302.944 75.9264 303.041 75.8579C303.138 75.7894 303.214 75.695 303.259 75.5854C304.753 71.9874 309.585 69.3835 314.136 71.0912C319.563 73.127 325.078 86.5925 303.323 100.075Z" fill="#898888"/>
<path d="M262.549 562.229V586.662L250.809 585.948L248.5 562.229H262.549Z" fill="white"/>
<path d="M262.554 587.445H262.506L250.764 586.729C250.578 586.717 250.403 586.64 250.269 586.511C250.135 586.383 250.052 586.21 250.033 586.025L247.724 562.307C247.711 562.196 247.722 562.084 247.756 561.977C247.789 561.871 247.845 561.773 247.92 561.69C247.995 561.608 248.086 561.542 248.188 561.497C248.29 561.452 248.4 561.429 248.512 561.431H262.564C262.771 561.432 262.97 561.515 263.116 561.662C263.263 561.809 263.345 562.008 263.345 562.215V586.647C263.345 586.754 263.323 586.86 263.281 586.959C263.238 587.057 263.176 587.146 263.098 587.219C262.953 587.362 262.758 587.443 262.554 587.445ZM251.524 585.203L261.769 585.829V563.01H249.364L251.524 585.203Z" fill="#898888"/>
<path d="M249.051 617.129C253.832 617.64 267.018 618.039 270.771 616.402C274.078 614.958 276.989 608.181 275.319 605.649C271.137 599.311 268.3 588.321 265.852 579.732C265.821 579.623 265.759 579.524 265.674 579.449C265.589 579.374 265.484 579.325 265.372 579.308C265.259 579.291 265.144 579.306 265.041 579.353C264.937 579.399 264.849 579.474 264.787 579.57L262.278 583.357L260.449 578.91C260.302 578.666 260.1 578.461 259.859 578.309C259.619 578.158 259.346 578.065 259.062 578.038L254.944 577.96C254.004 577.872 252.99 578.785 252.429 579.651L249.46 583.371L247.813 580.327C247.753 580.217 247.659 580.128 247.545 580.075C247.431 580.021 247.303 580.005 247.18 580.029C247.056 580.052 246.943 580.115 246.857 580.206C246.771 580.298 246.716 580.415 246.701 580.54L243.249 609.03C243.141 613.602 246.275 616.828 249.051 617.129Z" fill="white"/>
<path d="M259.27 618.357C255.118 618.357 251.054 618.13 248.968 617.907C245.735 617.569 242.351 613.903 242.455 609.013L245.911 580.446C245.945 580.155 246.071 579.884 246.27 579.67C246.47 579.456 246.732 579.311 247.019 579.256C247.306 579.201 247.603 579.239 247.867 579.364C248.131 579.489 248.348 579.695 248.487 579.952L249.573 581.947L251.804 579.157C252.423 578.2 253.671 577.057 255.006 577.179L259.064 577.253C259.477 577.288 259.877 577.42 260.229 577.639C260.582 577.857 260.878 578.156 261.092 578.511C261.113 578.543 261.13 578.577 261.143 578.613L262.411 581.693L264.102 579.137C264.246 578.917 264.451 578.743 264.691 578.636C264.931 578.529 265.197 578.493 265.457 578.533C265.717 578.573 265.961 578.687 266.158 578.861C266.355 579.035 266.498 579.262 266.57 579.516C266.823 580.391 267.077 581.291 267.334 582.221C269.643 590.384 272.26 599.64 275.949 605.216C276.7 606.355 276.767 608.151 276.135 610.288C275.378 612.848 273.467 616.078 271.063 617.129C268.93 618.059 264.037 618.357 259.27 618.357ZM247.395 581.22L244.014 609.122C243.926 613.443 246.929 616.111 249.133 616.351C254.587 616.933 267.134 617.133 270.458 615.675C272.098 614.962 273.866 612.5 274.658 609.828C275.138 608.202 275.141 606.785 274.658 606.071C270.833 600.279 268.183 590.901 265.843 582.627C265.623 581.849 265.407 581.081 265.194 580.334L262.911 583.78C262.833 583.899 262.724 583.994 262.596 584.056C262.468 584.118 262.325 584.143 262.184 584.129C262.042 584.116 261.907 584.064 261.792 583.979C261.678 583.894 261.589 583.78 261.535 583.648L259.733 579.252C259.647 579.124 259.534 579.017 259.402 578.938C259.27 578.859 259.122 578.81 258.969 578.795L254.912 578.721C254.364 578.674 253.583 579.259 253.062 580.053L250.053 583.824C249.973 583.925 249.87 584.004 249.752 584.055C249.634 584.106 249.505 584.126 249.377 584.115C249.248 584.103 249.125 584.06 249.017 583.989C248.909 583.918 248.82 583.822 248.758 583.709L247.395 581.22Z" fill="#898888"/>
<path d="M258.833 612.909C252.541 612.909 248.216 611.506 247.949 611.418C247.753 611.353 247.59 611.212 247.497 611.026C247.404 610.841 247.389 610.626 247.454 610.429C247.519 610.232 247.66 610.069 247.846 609.976C248.031 609.883 248.246 609.868 248.443 609.934C248.538 609.964 257.836 612.977 268.858 610.062C268.96 610.029 269.067 610.017 269.173 610.027C269.279 610.037 269.383 610.069 269.476 610.12C269.57 610.171 269.652 610.241 269.718 610.325C269.784 610.409 269.832 610.505 269.859 610.609C269.886 610.712 269.892 610.819 269.876 610.925C269.86 611.03 269.823 611.132 269.767 611.222C269.71 611.313 269.636 611.391 269.549 611.452C269.461 611.513 269.362 611.556 269.257 611.577C265.854 612.466 262.351 612.914 258.833 612.909Z" fill="#898888"/>
<path d="M264.432 600.11H253.717C253.519 600.097 253.332 600.008 253.196 599.863C253.06 599.718 252.984 599.526 252.984 599.327C252.984 599.128 253.06 598.936 253.196 598.791C253.332 598.645 253.519 598.557 253.717 598.544H264.432C264.631 598.557 264.817 598.645 264.953 598.791C265.089 598.936 265.165 599.128 265.165 599.327C265.165 599.526 265.089 599.718 264.953 599.863C264.817 600.008 264.631 600.097 264.432 600.11Z" fill="#898888"/>
<path d="M176.193 549.301L172.724 578.758L161.719 578.376V549.301H176.193Z" fill="white"/>
<path d="M172.724 579.543H172.697L161.692 579.157C161.489 579.15 161.297 579.065 161.157 578.919C161.016 578.773 160.937 578.579 160.938 578.376V549.294C160.937 549.087 161.02 548.888 161.166 548.741C161.312 548.594 161.511 548.511 161.719 548.51H176.193C176.304 548.51 176.413 548.534 176.514 548.58C176.614 548.625 176.704 548.691 176.778 548.773C176.852 548.856 176.907 548.953 176.941 549.059C176.974 549.164 176.984 549.276 176.971 549.386L173.502 578.843C173.481 579.035 173.39 579.212 173.247 579.341C173.103 579.471 172.917 579.542 172.724 579.543ZM162.503 577.619L172.031 577.957L175.314 550.086H162.503V577.619Z" fill="#898888"/>
<path d="M176.32 571.752C176.32 571.752 176.753 584.812 176.32 590.077C176.009 593.841 170.85 605.216 167.938 611.381C167.341 612.622 166.481 613.718 165.419 614.593C164.356 615.469 163.116 616.104 161.785 616.453C157.136 617.515 154.887 617.468 150.603 616.761C144.838 615.821 143.046 610.542 144.747 605.484C146.316 600.82 148.926 595.677 153.237 589.377C156.365 584.802 159.218 571.255 159.218 571.255H168.185L170.718 578.769L176.32 571.752Z" fill="white"/>
<path d="M155.692 618.036C153.943 618.006 152.199 617.833 150.478 617.518C147.841 617.089 145.799 615.784 144.571 613.748C143.168 611.421 142.962 608.314 144.003 605.223C145.694 600.208 148.419 595.031 152.591 588.924C155.594 584.527 158.424 571.214 158.454 571.082C158.49 570.906 158.586 570.748 158.725 570.635C158.865 570.521 159.039 570.459 159.218 570.46H168.185C168.349 570.459 168.508 570.51 168.641 570.606C168.774 570.701 168.874 570.836 168.926 570.991L171.002 577.149L175.712 571.261C175.812 571.137 175.948 571.045 176.101 571C176.255 570.955 176.419 570.957 176.571 571.008C176.722 571.058 176.855 571.154 176.951 571.282C177.047 571.41 177.1 571.565 177.105 571.725C177.125 572.259 177.538 584.893 177.105 590.141C176.784 594.006 171.668 605.314 168.652 611.716C168.003 613.063 167.067 614.252 165.91 615.2C164.753 616.147 163.403 616.83 161.954 617.201C159.906 617.722 157.805 618.002 155.692 618.036ZM159.851 572.026C159.242 574.778 156.71 585.67 153.883 589.806C149.795 595.792 147.121 600.847 145.488 605.72C144.595 608.378 144.747 611.009 145.91 612.94C146.894 614.57 148.561 615.621 150.728 615.983C154.928 616.66 157.088 616.72 161.612 615.686C163.915 615.158 166.174 613.298 167.232 611.056C172.304 600.33 175.323 592.664 175.543 590.019C175.864 586.137 175.705 577.845 175.604 573.916L171.33 579.256C171.242 579.365 171.126 579.448 170.994 579.497C170.863 579.546 170.721 579.559 170.583 579.535C170.445 579.51 170.316 579.449 170.209 579.358C170.103 579.266 170.023 579.148 169.977 579.015L167.611 572.036L159.851 572.026Z" fill="#898888"/>
<path d="M154.288 612.615C152.715 612.615 150.72 612.449 149.141 611.83C148.948 611.754 148.793 611.605 148.71 611.415C148.627 611.224 148.623 611.009 148.699 610.816C148.774 610.622 148.924 610.467 149.114 610.384C149.304 610.301 149.52 610.297 149.713 610.373C151.775 611.181 155.048 611.103 156.31 610.941C158.523 610.653 160.565 609.596 162.078 607.955C163.153 606.839 164.069 605.581 164.8 604.215C165.902 601.99 167.031 599.447 167.843 597.59C169.131 594.689 169.273 594.405 169.533 594.209C169.685 594.08 169.879 594.014 170.078 594.023C170.276 594.033 170.464 594.118 170.602 594.262C170.74 594.405 170.818 594.595 170.82 594.794C170.823 594.993 170.749 595.185 170.615 595.331C170.443 595.612 169.851 596.948 169.263 598.24C168.434 600.11 167.302 602.666 166.182 604.925C165.386 606.423 164.386 607.803 163.21 609.027C161.452 610.931 159.082 612.157 156.512 612.493C155.774 612.578 155.031 612.618 154.288 612.615Z" fill="#898888"/>
<path d="M162.239 600.476H152.434C152.326 600.483 152.219 600.468 152.118 600.431C152.017 600.395 151.924 600.339 151.846 600.265C151.768 600.192 151.705 600.103 151.662 600.005C151.62 599.906 151.598 599.8 151.598 599.693C151.598 599.585 151.62 599.479 151.662 599.381C151.705 599.282 151.768 599.193 151.846 599.12C151.924 599.047 152.017 598.99 152.118 598.954C152.219 598.918 152.326 598.903 152.434 598.91H162.239C162.438 598.923 162.624 599.011 162.76 599.156C162.896 599.302 162.972 599.494 162.972 599.693C162.972 599.892 162.896 600.084 162.76 600.229C162.624 600.374 162.438 600.463 162.239 600.476Z" fill="#898888"/>
<path d="M233.862 396.156C233.574 393.216 229.489 392.717 228.517 395.517C222.731 412.146 210.402 448.092 198.86 484.989L198.86 484.989C198.702 485.494 198.402 486.888 198.038 488.681C197.671 490.49 197.231 492.743 196.792 494.992L196.771 495.098C196.339 497.313 195.909 499.517 195.55 501.289C195.182 503.105 194.896 504.429 194.761 504.864L194.761 504.864C192.046 513.619 189.388 521.728 187.001 529.012C183.116 540.865 179.947 550.535 178.407 557.258L178.407 557.258C178.233 558.019 177.836 558.711 177.267 559.245C176.698 559.779 175.983 560.131 175.214 560.257C171.818 560.805 166.169 561.29 161.184 559.717C160.392 559.46 159.703 558.957 159.218 558.281L158.812 558.572L159.218 558.281C158.733 557.604 158.477 556.789 158.489 555.956L158.489 555.953C158.538 549.994 158.672 535.938 158.921 522.443C159.169 508.926 159.532 496.028 160.033 492.344L159.537 492.277L160.033 492.344C161.085 484.583 164.6 476.865 168.208 468.944L168.39 468.545C172.047 460.514 175.752 452.28 176.881 443.718C177.599 438.277 178.22 430.2 178.935 420.91C179.336 415.705 179.766 410.118 180.258 404.401C181.632 388.456 183.493 371.474 186.562 358.756C189.634 346.024 194.186 332.498 197.973 322.148C199.866 316.975 201.567 312.598 202.795 309.515C203.408 307.974 203.903 306.756 204.245 305.924C204.406 305.533 204.532 305.228 204.621 305.014L280.905 318.374L280.897 318.972C280.887 319.644 280.873 320.639 280.853 321.925C280.814 324.497 280.754 328.237 280.67 332.908C280.501 342.25 280.238 355.317 279.856 370.212C279.093 400.006 277.858 437.111 275.972 466.375C272.727 516.687 266.772 556.814 265.157 567.061L265.157 567.063C265.056 567.715 264.747 568.317 264.276 568.779C263.804 569.241 263.196 569.538 262.542 569.626C259.496 570.032 254.252 570.448 249.223 569.502L249.221 569.501C248.626 569.392 248.075 569.11 247.639 568.69C247.202 568.271 246.899 567.732 246.765 567.142C245.666 562.101 242.846 549.066 240.3 535.284C237.751 521.482 235.488 506.985 235.488 498.999C235.488 490.321 236.264 484.901 237.086 479.87C237.162 479.407 237.238 478.946 237.314 478.487C238.065 473.949 238.801 469.496 238.963 463.011C239.228 452.34 235.666 414.474 233.862 396.156ZM233.862 396.156L233.365 396.205M233.862 396.156C233.862 396.156 233.862 396.156 233.862 396.156L233.365 396.205M233.365 396.205C233.128 393.794 229.784 393.392 228.989 395.681C223.204 412.309 210.877 448.248 199.337 485.138L233.365 396.205ZM195.239 505.012C192.514 513.797 189.852 521.919 187.464 529.207C183.587 541.036 180.43 550.667 178.894 557.369C178.698 558.227 178.251 559.007 177.609 559.609C176.968 560.212 176.162 560.609 175.293 560.751C171.875 561.302 166.131 561.803 161.032 560.193L195.239 505.012Z" fill="white" stroke="#898888"/>
<path d="M159.804 259.904L159.804 259.904C149.665 252.033 142.254 241.158 139.156 230.135C136.059 219.115 137.282 207.993 144.328 199.537C147.502 195.729 150.708 193.652 153.945 192.435C157.196 191.213 160.497 190.85 163.902 190.5C163.992 190.49 164.083 190.481 164.173 190.472C170.9 189.782 177.919 189.062 185 181.56L184.636 181.216L185 181.56C192.025 174.116 193.866 167.765 195.096 162.451C195.195 162.024 195.29 161.604 195.383 161.193C196.448 156.485 197.282 152.802 201.323 149.797L201.323 149.797C204.39 147.513 207.107 146.465 209.759 146.057C212.426 145.647 215.051 145.879 217.967 146.196C218.215 146.223 218.464 146.251 218.716 146.279C224.389 146.906 231.064 147.643 240.656 144.332C247.321 142.033 256.446 146.488 257.706 157.107C258.211 161.363 256.417 164.567 254.019 167.436C253.116 168.517 252.141 169.534 251.174 170.543C250.85 170.881 250.528 171.217 250.209 171.555C248.95 172.889 247.758 174.235 246.901 175.664L247.329 175.921L246.901 175.664C244.169 180.215 242.651 186.521 241.613 193.634C240.878 198.664 240.378 204.14 239.868 209.73C239.656 212.048 239.442 214.386 239.21 216.72C238.414 224.697 237.393 232.641 235.452 239.695C233.511 246.751 230.661 252.872 226.241 257.238C219.144 264.241 207.86 269.055 195.666 270.036C183.48 271.016 170.434 268.164 159.804 259.904Z" fill="#545454" stroke="#898888"/>
<path d="M351.15 132.515L346.596 144.882C345.862 146.77 345.585 148.805 345.787 150.821C345.989 152.836 346.665 154.776 347.759 156.481L351.837 163.014C352.513 164.096 352.652 165.381 352.611 166.646C352.523 169.5 351.874 173.832 351.874 173.832L362.355 174.528C362.355 174.528 361.483 168.949 361.05 167.024C360.496 164.559 360.611 161.908 361.784 159.673C365.503 152.571 364.898 145.21 364.898 145.21L357.625 146.762C357.625 146.762 355.597 142.873 356.347 136.296C356.533 135.028 356.465 133.736 356.148 132.495C355.417 130.043 351.911 130.074 351.15 132.515Z" fill="white"/>
<path d="M362.34 175.312H362.285L351.804 174.616C351.696 174.607 351.591 174.577 351.495 174.527C351.399 174.477 351.315 174.408 351.246 174.325C351.179 174.24 351.13 174.142 351.102 174.037C351.074 173.933 351.068 173.823 351.084 173.716C351.084 173.675 351.726 169.398 351.814 166.615C351.855 165.218 351.648 164.204 351.158 163.422L347.08 156.886C345.925 155.077 345.212 153.022 344.998 150.887C344.784 148.751 345.076 146.595 345.85 144.594L350.394 132.254C350.608 131.554 351.046 130.943 351.641 130.515C352.236 130.087 352.955 129.867 353.687 129.887C354.406 129.881 355.107 130.111 355.682 130.543C356.257 130.974 356.674 131.583 356.869 132.274C357.213 133.617 357.29 135.014 357.095 136.386C356.537 141.256 357.575 144.614 358.059 145.855L364.706 144.435C364.815 144.411 364.927 144.411 365.036 144.435C365.145 144.458 365.247 144.505 365.337 144.571C365.426 144.637 365.5 144.722 365.554 144.819C365.608 144.916 365.641 145.024 365.65 145.135C365.89 150.288 364.787 155.416 362.448 160.014C361.454 161.904 361.22 164.325 361.771 166.831C362.204 168.759 363.05 174.159 363.083 174.389C363.101 174.5 363.094 174.614 363.064 174.723C363.033 174.832 362.979 174.932 362.906 175.018C362.833 175.104 362.742 175.173 362.639 175.22C362.537 175.267 362.425 175.292 362.312 175.292L362.34 175.312ZM352.764 173.104L361.413 173.682C361.143 171.991 360.585 168.59 360.27 167.196C359.624 164.329 359.908 161.525 361.075 159.307C363.915 153.896 364.162 148.3 364.138 146.169L357.775 147.522C357.608 147.559 357.433 147.539 357.278 147.466C357.122 147.393 356.995 147.272 356.916 147.12C356.828 146.951 354.783 142.937 355.564 136.2C355.734 135.036 355.675 133.849 355.388 132.707C355.287 132.339 355.066 132.014 354.76 131.786C354.453 131.557 354.079 131.438 353.697 131.446C353.301 131.439 352.913 131.561 352.593 131.794C352.273 132.027 352.037 132.358 351.922 132.738C351.921 132.751 351.921 132.765 351.922 132.778L347.327 145.155C346.64 146.93 346.38 148.842 346.569 150.736C346.758 152.63 347.391 154.453 348.416 156.057L352.5 162.597C353.369 163.991 353.423 165.587 353.39 166.655C353.325 168.803 352.957 171.694 352.764 173.104Z" fill="#898888"/>
<path d="M364.936 169.577L349.136 170.142C349.136 170.142 347.239 192.045 330.333 207.742C319.426 217.86 303.676 216.139 291.416 213.237C271.468 204.185 234.65 206.234 219.094 212.422C188.981 224.4 175.585 327.995 183.835 351.541C191.372 373.045 264.327 381.215 285.547 364.212C294.588 356.969 294.027 311.013 293.425 292.627C293.238 287.038 293.282 281.451 293.557 275.864L294.175 263.112C302.486 261.723 349.859 252.667 361.714 225.293C374.461 195.859 364.936 169.577 364.936 169.577Z" fill="white"/>
<path d="M246.796 374.15C234.053 374.15 220.643 372.365 209.472 369.163C194.933 364.99 185.56 358.825 183.099 351.801C178.859 339.709 180.245 307.763 186.297 277.491C189.76 260.217 199.859 219.225 218.794 211.695C234.029 205.631 271.306 203.308 291.657 212.493C302.768 215.117 318.771 217.393 329.783 207.17C346.263 191.868 348.325 170.29 348.346 170.074C348.361 169.883 348.447 169.705 348.585 169.574C348.723 169.442 348.905 169.366 349.096 169.36L364.893 168.792C365.06 168.78 365.226 168.824 365.365 168.918C365.504 169.012 365.607 169.15 365.657 169.309C365.755 169.573 375.145 196.224 362.421 225.603C350.723 252.612 305.493 261.945 294.913 263.778L294.325 275.901C294.058 281.461 294.011 287.081 294.193 292.6C294.822 311.841 295.292 357.398 286.024 364.824C277.964 371.29 262.914 374.15 246.796 374.15ZM255.364 207.897C241.096 207.897 227.253 210.017 219.385 213.149C206.537 218.251 195.041 241.815 187.846 277.798C181.828 307.83 180.408 339.421 184.576 351.284C186.865 357.814 195.859 363.63 209.901 367.658C234.32 374.658 271.188 374.712 285.061 363.6C291.106 358.757 293.94 332.235 292.641 292.65C292.459 287.088 292.506 281.427 292.777 275.823L293.395 263.075C293.403 262.896 293.472 262.725 293.591 262.592C293.71 262.458 293.871 262.37 294.048 262.341C303.177 260.809 349.374 251.817 360.995 224.981C372.491 198.449 365.61 174.257 364.376 170.378L349.837 170.899C349.333 174.778 346.118 194.158 330.862 208.316C319.278 219.073 302.7 216.709 291.238 214.001C291.189 213.988 291.142 213.971 291.096 213.95C281.592 209.642 268.304 207.897 255.364 207.897Z" fill="#898888"/>
<path d="M234.43 179.289C234.58 179.304 234.732 179.287 234.875 179.238C235.018 179.189 235.148 179.109 235.257 179.005C235.366 178.9 235.45 178.773 235.505 178.632C235.559 178.492 235.583 178.341 235.573 178.19C235.397 175.119 234.711 169.347 237.761 166.926C241.669 163.821 248.154 159.128 250.413 162.313C252.394 165.103 254.261 170.662 259.272 172.948C259.752 173.165 259.765 173.878 259.522 174.345L258.315 177.006C258.041 177.531 258.193 178.792 258.396 179.35C259.018 181.081 260.482 184.696 260.127 185.437C259.434 186.85 253.703 189.156 253.703 189.156L256.526 206.606C256.634 207.282 257.016 208.378 257.669 208.249L264.479 209.067C264.479 209.067 263.583 218.404 248.949 220.257C229.825 222.678 227.719 214.485 227.719 214.485C227.719 214.485 246.521 210.478 239.468 189.863C239.391 189.64 239.256 189.442 239.078 189.287C238.901 189.132 238.685 189.027 238.454 188.981C236.665 188.615 231.732 187.385 230.948 184.125C230.119 180.679 232.239 179.083 234.43 179.289Z" fill="white"/>
<path d="M242.373 221.498C228.886 221.498 227.043 215.006 226.962 214.691C226.936 214.589 226.931 214.483 226.946 214.379C226.962 214.275 226.999 214.175 227.054 214.085C227.109 213.996 227.182 213.918 227.268 213.857C227.354 213.796 227.451 213.753 227.554 213.731C227.628 213.731 234.935 212.08 238.414 205.923C240.781 201.74 240.882 196.427 238.728 190.127C238.695 190.034 238.639 189.952 238.565 189.887C238.491 189.823 238.402 189.778 238.306 189.759C235.635 189.214 231.026 187.784 230.191 184.321C229.633 181.994 230.302 180.601 230.962 179.83C231.404 179.343 231.957 178.969 232.573 178.739C233.19 178.509 233.852 178.43 234.505 178.508H234.536C234.571 178.508 234.606 178.501 234.639 178.487C234.671 178.472 234.701 178.452 234.725 178.426C234.749 178.4 234.768 178.369 234.779 178.335C234.791 178.302 234.795 178.266 234.793 178.231C234.793 177.967 234.759 177.679 234.739 177.378C234.512 173.953 234.167 168.776 237.274 166.31C240.686 163.605 245.592 160.051 248.811 160.504C249.259 160.559 249.69 160.707 250.077 160.94C250.463 161.173 250.796 161.486 251.053 161.857C251.618 162.695 252.141 163.562 252.618 164.454C254.156 167.203 256.074 170.625 259.597 172.232C259.776 172.315 259.936 172.434 260.068 172.582C260.199 172.73 260.299 172.903 260.361 173.091C260.444 173.356 260.474 173.635 260.449 173.912C260.424 174.188 260.345 174.458 260.215 174.704L259.025 177.328C258.897 177.595 258.944 178.559 259.13 179.083C259.228 179.347 259.343 179.654 259.468 179.989C260.746 183.415 261.22 184.974 260.821 185.765C260.144 187.151 256.391 188.859 254.579 189.62L257.301 206.46C257.348 206.81 257.469 207.145 257.656 207.444H257.768L264.564 208.296C264.765 208.323 264.948 208.426 265.074 208.585C265.201 208.745 265.26 208.947 265.24 209.149C265.203 209.554 264.111 219.128 249.031 221.038C246.823 221.33 244.6 221.484 242.373 221.498ZM228.822 215.012C229.924 216.822 234.204 221.346 248.851 219.49C260.286 218.046 262.954 211.901 263.543 209.751L257.686 209.017C257.378 209.038 257.071 208.954 256.817 208.777C256.07 208.256 255.827 207.066 255.769 206.711L252.946 189.261C252.918 189.086 252.951 188.906 253.038 188.752C253.125 188.597 253.262 188.476 253.426 188.409C255.999 187.374 258.968 185.826 259.401 185.119C259.458 184.443 258.44 181.717 258.001 180.537C257.872 180.199 257.757 179.884 257.663 179.617C257.436 178.991 257.193 177.476 257.622 176.648L258.812 174.02C258.878 173.902 258.906 173.766 258.893 173.632C254.934 171.806 252.905 168.15 251.252 165.222C250.735 164.302 250.238 163.433 249.778 162.766C249.643 162.569 249.467 162.404 249.263 162.282C249.058 162.16 248.828 162.084 248.591 162.06C246.654 161.776 243.181 163.625 238.248 167.538C235.783 169.493 236.094 174.179 236.301 177.28C236.321 177.585 236.338 177.876 236.355 178.143C236.371 178.406 236.329 178.669 236.234 178.914C236.138 179.16 235.99 179.382 235.801 179.565C235.611 179.747 235.384 179.887 235.135 179.974C234.887 180.06 234.622 180.092 234.36 180.067C233.955 180.01 233.541 180.052 233.156 180.189C232.77 180.326 232.424 180.555 232.145 180.855C231.543 181.551 231.395 182.623 231.716 183.952C232.368 186.658 236.76 187.844 238.617 188.223C238.981 188.297 239.319 188.465 239.598 188.71C239.878 188.955 240.088 189.269 240.209 189.62C242.519 196.383 242.37 202.132 239.77 206.707C236.676 212.165 231.053 214.339 228.822 215.012Z" fill="#898888"/>
<path d="M394.996 561.09L397.775 580.889L411.266 581.995L410.441 558.432L394.996 561.09Z" fill="white"/>
<path d="M411.267 582.776H411.203L397.712 581.67C397.535 581.654 397.368 581.579 397.239 581.456C397.11 581.333 397.027 581.17 397.002 580.994L394.223 561.195C394.194 560.993 394.245 560.788 394.365 560.624C394.485 560.459 394.665 560.349 394.865 560.315L410.31 557.657C410.421 557.638 410.533 557.642 410.642 557.671C410.75 557.699 410.851 557.75 410.937 557.82C411.024 557.891 411.094 557.979 411.144 558.08C411.193 558.18 411.22 558.29 411.223 558.401L412.052 581.964C412.055 582.069 412.037 582.174 411.999 582.272C411.961 582.37 411.904 582.459 411.831 582.535C411.757 582.61 411.67 582.67 411.573 582.711C411.476 582.752 411.372 582.773 411.267 582.773V582.776ZM398.466 580.159L410.456 581.143L409.692 559.355L395.876 561.722L398.466 580.159Z" fill="#898888"/>
<path d="M411.853 617.356C403.344 618.283 394.749 618.042 386.305 616.639C385.473 616.505 384.678 616.198 383.973 615.736C383.267 615.275 382.667 614.67 382.21 613.961C381.754 613.253 381.452 612.456 381.324 611.622C381.196 610.789 381.244 609.938 381.467 609.125C384.107 599.545 388.702 581.345 395.962 573.054L397.578 577.703L400.107 573.436C400.278 573.148 400.515 572.904 400.797 572.725C401.079 572.545 401.4 572.434 401.733 572.401L405.496 572.232C406.03 572.18 406.563 572.33 406.99 572.652C407.418 572.975 407.709 573.446 407.806 573.973L408.533 577.987L412.769 572.465L413.861 587.966C414.21 592.895 414.818 597.802 415.684 602.666L417.128 610.782C417.291 612.352 416.829 613.923 415.841 615.153C414.854 616.384 413.421 617.176 411.853 617.356Z" fill="white"/>
<path d="M401.749 618.692C396.532 618.693 391.323 618.266 386.176 617.414C385.232 617.258 384.332 616.907 383.532 616.383C382.732 615.859 382.05 615.173 381.53 614.37C381.021 613.572 380.685 612.676 380.544 611.74C380.403 610.804 380.46 609.849 380.712 608.936L381.28 606.856C383.985 596.969 388.492 580.416 395.372 572.557C395.461 572.452 395.576 572.373 395.706 572.328C395.836 572.284 395.975 572.275 396.11 572.303C396.244 572.329 396.369 572.39 396.472 572.48C396.575 572.569 396.653 572.685 396.698 572.814L397.763 575.857L399.433 573.04C399.667 572.647 399.99 572.315 400.376 572.069C400.762 571.824 401.2 571.672 401.655 571.627L405.462 571.454C406.181 571.395 406.898 571.604 407.473 572.041C408.048 572.478 408.441 573.112 408.576 573.821L408.988 576.097L412.146 571.975C412.243 571.849 412.376 571.755 412.527 571.706C412.678 571.657 412.84 571.656 412.993 571.702C413.145 571.748 413.279 571.839 413.378 571.963C413.477 572.088 413.536 572.239 413.546 572.398L414.642 587.899C414.987 592.799 415.592 597.678 416.454 602.514L417.898 610.63C418.094 612.413 417.578 614.202 416.462 615.607C415.347 617.011 413.721 617.919 411.94 618.131C408.556 618.508 405.154 618.695 401.749 618.692ZM395.68 574.619C389.516 582.583 385.334 597.915 382.788 607.242L382.22 609.325C382.023 610.025 381.977 610.76 382.085 611.479C382.194 612.199 382.454 612.887 382.849 613.498C383.247 614.121 383.772 614.654 384.389 615.062C385.007 615.47 385.703 615.743 386.433 615.865C394.805 617.257 403.328 617.496 411.764 616.575C413.127 616.414 414.372 615.722 415.23 614.65C416.088 613.579 416.49 612.212 416.349 610.847L414.912 602.802C414.042 597.91 413.43 592.977 413.08 588.021L412.133 574.579L409.154 578.461C409.062 578.581 408.937 578.673 408.794 578.723C408.651 578.774 408.496 578.782 408.349 578.746C408.201 578.71 408.068 578.632 407.964 578.521C407.86 578.411 407.791 578.272 407.764 578.123L407.034 574.105C406.973 573.772 406.789 573.474 406.518 573.27C406.248 573.066 405.911 572.97 405.573 573.003L401.766 573.176C401.563 573.202 401.368 573.275 401.197 573.388C401.026 573.501 400.883 573.652 400.779 573.828L398.25 578.096C398.173 578.224 398.062 578.327 397.929 578.394C397.796 578.461 397.646 578.489 397.498 578.474C397.35 578.459 397.209 578.402 397.092 578.31C396.974 578.218 396.886 578.094 396.836 577.954L395.68 574.619Z" fill="#898888"/>
<path d="M398.133 612.206C393.749 612.239 389.378 611.723 385.123 610.67C384.922 610.619 384.75 610.489 384.644 610.311C384.538 610.132 384.508 609.919 384.56 609.718C384.611 609.517 384.741 609.345 384.919 609.24C385.097 609.134 385.311 609.104 385.511 609.155C398.6 612.52 412.483 609.044 412.622 609.006C412.819 608.966 413.025 609.002 413.196 609.109C413.367 609.216 413.49 609.385 413.54 609.58C413.59 609.776 413.563 609.983 413.465 610.159C413.366 610.335 413.203 610.466 413.01 610.525C408.132 611.65 403.14 612.214 398.133 612.206Z" fill="#898888"/>
<path d="M393.639 597.313C393.44 597.3 393.254 597.212 393.118 597.066C392.982 596.921 392.906 596.729 392.906 596.53C392.906 596.331 392.982 596.139 393.118 595.994C393.254 595.849 393.44 595.76 393.639 595.747L406.247 595.68C406.446 595.693 406.632 595.781 406.768 595.926C406.904 596.072 406.98 596.263 406.98 596.463C406.98 596.662 406.904 596.853 406.768 596.999C406.632 597.144 406.446 597.232 406.247 597.245L393.639 597.313Z" fill="#898888"/>
<path d="M457.555 548.303L460.584 577.233L476.749 576.668L476.486 547.641L457.555 548.303Z" fill="white"/>
<path d="M460.58 578.018C460.387 578.018 460.201 577.946 460.057 577.817C459.914 577.688 459.823 577.51 459.802 577.318L456.759 548.389C456.747 548.282 456.757 548.173 456.789 548.07C456.821 547.967 456.874 547.872 456.944 547.791C457.015 547.709 457.102 547.644 457.199 547.597C457.296 547.551 457.402 547.526 457.51 547.523L476.444 546.847C476.549 546.842 476.653 546.858 476.751 546.896C476.849 546.933 476.938 546.99 477.012 547.063C477.088 547.135 477.148 547.222 477.189 547.317C477.23 547.413 477.252 547.517 477.252 547.621L477.516 576.649C477.52 576.853 477.442 577.05 477.301 577.198C477.16 577.345 476.966 577.431 476.762 577.437L460.597 578.005L460.58 578.018ZM458.419 549.058L461.283 576.429L475.957 575.915L475.71 548.453L458.419 549.058Z" fill="#898888"/>
<path d="M456.93 593.756C456.956 595.088 457.437 596.372 458.293 597.393C459.15 598.414 460.33 599.112 461.637 599.369C471.006 601.209 492.111 605.294 498.116 605.974C505.893 606.856 517.199 603.718 519.286 599.471C521.99 593.982 509.578 584.429 503.144 580.713C493.585 575.188 484.209 563.937 480.409 563.548C476.609 563.159 469.975 574.339 469.975 574.339L458.31 569.909C458.31 569.909 456.65 579.834 456.93 593.756Z" fill="white"/>
<path d="M500.83 606.901C499.894 606.902 498.958 606.853 498.027 606.752C491.941 606.076 470.447 601.896 461.487 600.137C460.006 599.84 458.67 599.048 457.7 597.89C456.729 596.733 456.18 595.28 456.145 593.77C455.867 579.936 457.517 569.882 457.534 569.781C457.554 569.667 457.598 569.559 457.664 569.464C457.73 569.369 457.816 569.29 457.916 569.233C458.018 569.173 458.131 569.138 458.248 569.128C458.365 569.119 458.483 569.136 458.593 569.179L469.646 573.375C471.336 570.599 476.746 562.405 480.496 562.771C482.643 562.99 485.801 565.78 490.166 569.645C494.223 573.243 498.842 577.318 503.542 580.034C508.83 583.077 523.203 593.283 519.994 599.816C517.932 603.999 508.37 606.901 500.83 606.901ZM458.938 570.988C457.949 578.529 457.538 586.135 457.71 593.739C457.736 594.893 458.153 596.003 458.895 596.887C459.636 597.771 460.657 598.376 461.788 598.602C470.731 600.357 492.181 604.513 498.203 605.196C505.908 606.065 516.759 602.829 518.581 599.109C520.904 594.375 509.418 585.225 502.75 581.373C497.915 578.58 493.246 574.447 489.124 570.802C485.449 567.549 481.977 564.478 480.333 564.309H480.198C477.76 564.309 473.077 570.65 470.65 574.728C470.557 574.888 470.411 575.009 470.237 575.071C470.063 575.133 469.872 575.131 469.7 575.066L458.938 570.988Z" fill="#898888"/>
<path d="M501.186 599.717C485.481 599.717 462.279 593.745 460.923 593.39C460.821 593.367 460.725 593.323 460.641 593.262C460.556 593.201 460.484 593.124 460.43 593.034C460.376 592.945 460.34 592.846 460.325 592.742C460.31 592.639 460.315 592.534 460.341 592.433C460.368 592.331 460.414 592.237 460.478 592.154C460.541 592.071 460.621 592.001 460.711 591.95C460.802 591.898 460.902 591.865 461.006 591.853C461.11 591.841 461.215 591.85 461.315 591.879C473.978 595.172 507.996 602.182 513.314 595.166C513.439 595 513.625 594.891 513.83 594.863C514.036 594.834 514.244 594.888 514.41 595.013C514.575 595.139 514.684 595.324 514.713 595.53C514.741 595.735 514.687 595.944 514.562 596.109C512.553 598.764 507.468 599.717 501.186 599.717Z" fill="#898888"/>
<path d="M483.301 584.65C483.143 584.652 482.988 584.607 482.857 584.519C482.725 584.432 482.623 584.307 482.564 584.16C482.505 584.014 482.492 583.853 482.526 583.699C482.561 583.545 482.641 583.405 482.757 583.297L490.719 575.594C490.793 575.522 490.88 575.466 490.975 575.428C491.071 575.39 491.173 575.372 491.275 575.373C491.378 575.375 491.479 575.397 491.574 575.437C491.668 575.478 491.753 575.537 491.825 575.611C491.896 575.684 491.952 575.771 491.99 575.867C492.028 575.962 492.047 576.064 492.045 576.167C492.044 576.27 492.022 576.371 491.981 576.465C491.94 576.56 491.882 576.645 491.808 576.716L483.838 584.426C483.694 584.567 483.502 584.647 483.301 584.65Z" fill="#898888"/>
<path d="M385.319 333.575C385.319 333.575 381.6 452.446 380.062 483.834C378.834 509.078 385.394 546.363 388.007 559.991C388.283 561.426 389.081 562.708 390.247 563.589C391.413 564.47 392.864 564.887 394.32 564.759L408.541 563.511C410.016 563.382 411.388 562.704 412.386 561.61C413.383 560.516 413.934 559.087 413.927 557.607C413.87 545.727 413.799 516.977 414.245 498.111C414.42 490.307 415.81 482.579 418.367 475.204C421.41 466.483 425.467 453.105 426.924 440.712C429.328 420.08 438.836 387.279 438.836 387.279C438.836 387.279 451.248 527.473 453.984 556.961C454.103 558.233 454.706 559.411 455.669 560.251C456.632 561.091 457.88 561.53 459.157 561.476C464.404 561.259 471.596 562.152 476.959 560.032C477.762 559.717 478.469 559.199 479.012 558.529C479.555 557.858 479.915 557.058 480.056 556.207C481.956 544.679 490.896 493.752 488.34 465.58C485.428 433.522 483.227 327.012 483.227 327.012L385.319 333.575Z" fill="white"/>
<path d="M393.79 565.563C392.239 565.565 390.736 565.025 389.54 564.038C388.344 563.05 387.53 561.676 387.238 560.152C384.438 545.557 378.058 508.911 379.278 483.809C380.786 452.786 384.496 334.751 384.533 333.561C384.539 333.367 384.617 333.182 384.752 333.043C384.887 332.904 385.069 332.819 385.263 332.807L483.161 326.203C483.266 326.196 483.372 326.211 483.472 326.246C483.572 326.281 483.664 326.335 483.742 326.406C483.821 326.477 483.883 326.564 483.927 326.66C483.971 326.757 483.994 326.861 483.996 326.967C484.02 328.032 486.231 433.826 489.105 465.481C491.526 492.196 483.752 538.716 481.2 554.008L480.814 556.314C480.653 557.3 480.239 558.226 479.613 559.004C478.988 559.782 478.171 560.385 477.244 560.754C473.159 562.364 468.115 562.3 463.662 562.239C462.062 562.215 460.554 562.195 459.185 562.239C457.707 562.305 456.261 561.799 455.147 560.826C454.033 559.853 453.337 558.488 453.204 557.014C450.769 530.763 440.535 415.325 438.432 391.589C435.825 401.058 429.57 424.76 427.7 440.809C426.259 453.165 422.229 466.472 419.102 475.46C416.579 482.755 415.21 490.399 415.044 498.117C414.594 517.054 414.669 546.024 414.706 557.593C414.706 559.265 414.082 560.877 412.957 562.114C411.831 563.351 410.285 564.124 408.62 564.281L394.395 565.529C394.186 565.556 393.986 565.563 393.79 565.563ZM386.074 334.305C385.763 344.227 382.288 454.095 380.84 483.87C379.63 508.803 385.987 545.307 388.776 559.841C389.012 561.088 389.703 562.202 390.715 562.967C391.727 563.732 392.987 564.093 394.25 563.98L408.471 562.733C409.747 562.613 410.933 562.022 411.797 561.074C412.66 560.127 413.139 558.891 413.141 557.609C413.086 546.034 413.012 517.057 413.462 498.093C413.635 490.209 415.04 482.4 417.624 474.949C420.725 466.036 424.724 452.844 426.144 440.63C428.532 420.157 437.979 387.373 438.083 387.045C438.136 386.871 438.247 386.72 438.397 386.618C438.547 386.516 438.727 386.468 438.908 386.483C439.09 386.501 439.26 386.582 439.389 386.711C439.518 386.841 439.598 387.011 439.615 387.193C439.737 388.597 452.058 527.726 454.763 556.872C454.862 557.945 455.37 558.938 456.181 559.647C456.992 560.355 458.045 560.725 459.121 560.68C460.534 560.623 462.062 560.643 463.682 560.68C467.99 560.738 472.872 560.802 476.669 559.304C477.345 559.037 477.941 558.6 478.398 558.035C478.856 557.471 479.161 556.798 479.283 556.081L479.668 553.771C482.214 538.527 489.96 492.138 487.556 465.643C484.814 435.412 482.674 337.818 482.461 327.839L386.074 334.305Z" fill="#898888"/>
<path d="M368.918 339.077C368.918 339.077 406.824 350.165 440.97 351.619C461.135 352.475 474.65 346.496 474.65 346.496L455.411 190.486C455.411 190.486 454.356 178.258 432.957 172.563C421.461 169.52 412.744 182.782 412.744 182.782L368.918 339.077Z" fill="white"/>
<path d="M444.874 352.485C443.593 352.485 442.282 352.456 440.938 352.4C407.086 350.959 369.079 339.939 368.7 339.827C368.502 339.769 368.335 339.635 368.235 339.455C368.135 339.275 368.11 339.062 368.166 338.863L411.992 182.579C412.013 182.502 412.046 182.429 412.09 182.363C412.459 181.801 421.256 168.654 433.158 171.815C454.841 177.564 456.15 189.897 456.194 190.414L475.426 346.394C475.448 346.561 475.415 346.731 475.332 346.877C475.249 347.024 475.12 347.139 474.966 347.206C474.837 347.267 462.828 352.485 444.874 352.485ZM369.897 338.535C375.374 340.081 409.974 349.516 441.019 350.834C458.54 351.572 471.111 347.057 473.816 345.999L454.655 190.583C454.655 190.441 453.303 178.785 432.773 173.337C422.453 170.595 414.288 181.964 413.48 183.144L369.897 338.535Z" fill="#898888"/>
<path d="M465.213 191.973C455.624 178.227 440.243 174.074 422.272 172.979C415.398 172.563 405.836 177.114 400.994 181.558C391.815 185.092 382.895 188.784 376.255 195.101C368.816 202.169 345.916 235.731 340.056 246.671C321.544 281.271 311.174 350.371 326.278 372.331C335.458 385.689 342.507 320.545 353.405 297.723C360.539 282.786 371.829 253.532 377.823 251.358C377.002 254.367 376.758 261.164 376.261 264.12C373.398 281.048 365.34 363.854 365.34 363.854C371.734 368.327 387.483 377.563 387.483 377.563C400.332 317.928 394.864 313.234 397.498 275.8C399.706 244.432 404.937 238.332 409.67 204.343C410.384 199.21 409.386 191.632 414.32 181.365C416.098 177.645 448.645 189.877 451.005 193.16C461.02 207.096 449.558 248.662 450.204 267.424C451.164 295.237 455.002 324.235 456.347 330.998C459.17 345.234 458.156 370.471 458.156 370.471C470.643 371.056 478.524 366.772 484.11 361.551C485.926 359.826 487.243 357.643 487.924 355.232C488.605 352.822 488.623 350.272 487.978 347.852L486.155 340.852C484.721 335.362 483.989 329.713 483.978 324.038C483.978 320.586 483.849 316.105 483.447 310.901C482.49 298.433 477.679 283.304 477.679 283.304C477.679 283.304 481.587 287.913 494.693 293.026C507.798 298.139 515.21 282.019 516.765 265.55C521.85 211.61 465.213 191.973 465.213 191.973Z" fill="white"/>
<path d="M387.477 378.344C387.338 378.346 387.201 378.308 387.082 378.236C386.923 378.145 371.231 368.937 364.884 364.497C364.769 364.418 364.677 364.311 364.617 364.184C364.558 364.058 364.533 363.919 364.546 363.78C364.624 362.951 372.637 280.751 375.474 263.988C375.663 262.856 375.812 261.09 375.988 259.224C376.171 257.147 376.373 254.872 376.664 253.056C372.289 257.185 365.506 272.497 359.975 285.052C357.855 289.851 355.85 294.382 354.095 298.061C349.754 307.144 346.065 322.845 342.498 338.029C337.267 360.297 333.825 373.989 329.203 374.858C327.935 375.098 326.728 374.395 325.616 372.775C310.269 350.456 320.51 281.471 339.357 246.303C345.25 235.302 368.161 201.713 375.704 194.537C382.331 188.234 391.257 184.477 400.566 180.882C405.57 176.354 415.26 171.752 422.31 172.201C436.849 173.087 454.911 176.063 465.7 191.328C467.641 192.041 480.878 197.161 493.392 207.945C505.905 218.729 520.184 237.433 517.516 265.632C516.262 278.925 511.768 289.168 505.5 293.023C502.156 295.082 498.416 295.329 494.382 293.753C486.224 290.568 481.578 287.578 479.191 285.722C480.608 290.646 483.485 301.528 484.202 310.837C484.54 315.314 484.726 319.755 484.733 324.025C484.747 329.633 485.47 335.217 486.886 340.643L488.709 347.643C489.393 350.199 489.374 352.893 488.654 355.439C487.934 357.986 486.539 360.29 484.618 362.109C477.517 368.757 468.831 371.74 458.092 371.239C457.886 371.23 457.693 371.139 457.553 370.987C457.414 370.835 457.34 370.634 457.349 370.428C457.349 370.174 458.326 345.117 455.553 331.137C454.201 324.262 450.353 295.221 449.396 267.434C449.173 261.026 450.353 251.974 451.601 242.39C454.032 223.727 456.787 202.572 450.343 193.6C448.561 191.125 424.349 181.552 416.531 181.426C415.226 181.406 415.006 181.677 415.003 181.68C411.331 189.326 411.013 195.362 410.76 200.215C410.682 201.723 410.608 203.15 410.422 204.421C408.349 219.365 406.144 229.053 404.2 237.605C401.681 248.697 399.501 258.277 398.266 275.817C397.462 287.223 397.414 295.431 397.367 303.401C397.262 320.985 397.174 336.203 388.238 377.692C388.201 377.867 388.105 378.024 387.966 378.136C387.826 378.248 387.653 378.309 387.474 378.307L387.477 378.344ZM366.156 363.465C371.731 367.31 383.538 374.324 386.94 376.332C395.616 335.79 395.707 320.779 395.808 303.421C395.856 295.444 395.906 287.19 396.711 275.736C397.955 258.071 400.146 248.436 402.682 237.28C404.62 228.762 406.814 219.104 408.88 204.229C409.046 203.025 409.117 201.696 409.198 200.154C409.444 195.42 409.786 188.954 413.593 181.021C414.056 180.057 415.307 179.949 415.717 179.911C422.448 179.303 449.281 189.444 451.618 192.697C458.427 202.166 455.628 223.653 453.159 242.603C451.922 252.119 450.749 261.107 450.965 267.39C451.922 295.089 455.736 324.005 457.092 330.843C459.624 343.595 459.087 365.335 458.945 369.731C468.872 370.049 476.939 367.175 483.556 360.99C485.278 359.365 486.528 357.304 487.173 355.026C487.818 352.749 487.835 350.338 487.221 348.052L485.399 341.048C483.949 335.496 483.208 329.781 483.194 324.042C483.194 319.798 483.012 315.399 482.67 310.962C481.727 298.724 476.983 283.693 476.922 283.541C476.864 283.367 476.868 283.177 476.935 283.006C477.002 282.835 477.127 282.693 477.288 282.604C477.449 282.516 477.636 282.487 477.816 282.522C477.996 282.557 478.159 282.654 478.275 282.797C478.312 282.841 482.274 287.342 494.974 292.299C498.528 293.686 501.801 293.483 504.702 291.694C510.45 288.14 514.791 278.093 515.984 265.476C518.585 237.964 504.61 219.666 492.435 209.159C479.177 197.722 465.108 192.758 464.966 192.711C464.812 192.657 464.678 192.555 464.584 192.42C456.368 180.645 443.706 175.062 422.239 173.757C415.74 173.358 406.29 177.768 401.536 182.13C401.464 182.197 401.38 182.249 401.289 182.285C392.069 185.836 383.257 189.529 376.806 195.663C369.341 202.764 346.616 236.104 340.76 247.036C331.871 263.633 324.429 289.421 321.342 314.33C318.045 340.944 320.081 361.92 326.928 371.882C327.658 372.944 328.334 373.427 328.956 373.312C332.811 372.589 337.169 354.037 341.013 337.664C344.601 322.402 348.31 306.617 352.722 297.378C354.47 293.72 356.469 289.198 358.582 284.413C366.876 265.649 373.094 252.244 377.581 250.618C377.715 250.57 377.859 250.56 377.999 250.589C378.138 250.618 378.267 250.684 378.372 250.781C378.476 250.878 378.552 251.001 378.591 251.138C378.631 251.275 378.632 251.42 378.595 251.558C378.118 253.313 377.831 256.522 377.581 259.356C377.411 261.256 377.242 263.048 377.05 264.245C374.311 280.311 366.812 356.814 366.176 363.472L366.156 363.465Z" fill="#898888"/>
<path d="M475.689 271.901H475.641C475.538 271.895 475.438 271.869 475.345 271.824C475.252 271.78 475.17 271.717 475.101 271.64C475.033 271.563 474.981 271.473 474.948 271.375C474.914 271.278 474.901 271.175 474.908 271.072C475.35 263.795 473.088 255.297 470.82 247.945C470.79 247.847 470.779 247.744 470.789 247.642C470.798 247.54 470.828 247.44 470.876 247.35C470.924 247.259 470.99 247.179 471.069 247.113C471.148 247.048 471.239 246.998 471.337 246.968C471.435 246.938 471.538 246.927 471.641 246.937C471.743 246.947 471.842 246.976 471.933 247.024C472.024 247.073 472.104 247.138 472.169 247.217C472.235 247.296 472.284 247.387 472.314 247.486C474.627 254.969 476.929 263.64 476.47 271.157C476.46 271.357 476.374 271.547 476.228 271.685C476.083 271.824 475.889 271.901 475.689 271.901Z" fill="#898888"/>
<path d="M436.715 148.939C436.715 148.939 435.599 180.233 443.977 184.683C444.062 184.727 449.387 189.194 445.052 192.505L435.058 200.164C433.255 201.545 431.196 202.554 429 203.133C426.804 203.712 424.515 203.849 422.265 203.537C420.016 203.225 417.851 202.469 415.896 201.314C413.941 200.158 412.234 198.626 410.876 196.806C408.847 194.064 409.141 189.847 411.444 187.314C416.854 181.352 416.698 174.488 415.704 169.949C413.871 161.57 436.715 148.939 436.715 148.939Z" fill="white"/>
<path d="M424.669 204.485C423.831 204.485 422.993 204.427 422.163 204.313C419.809 203.993 417.544 203.205 415.499 201.997C413.453 200.788 411.671 199.183 410.255 197.276C408 194.253 408.27 189.647 410.87 186.793C416.016 181.139 415.942 174.619 414.927 170.125C412.993 161.275 435.37 148.787 436.323 148.259C436.445 148.192 436.581 148.158 436.72 148.161C436.859 148.164 436.994 148.204 437.112 148.277C437.23 148.35 437.327 148.452 437.392 148.575C437.457 148.697 437.489 148.834 437.483 148.973C437.179 157.542 437.821 180.537 444.33 184C444.56 184.121 447.268 186.424 447.498 189.126C447.586 190.191 447.316 191.754 445.517 193.133L435.522 200.789C432.412 203.187 428.595 204.486 424.669 204.485ZM435.901 150.302C429.078 154.265 415.157 163.757 416.473 169.783C417.534 174.626 417.622 181.69 412.026 187.841C409.95 190.124 409.717 193.928 411.509 196.339C412.806 198.076 414.434 199.538 416.3 200.64C418.166 201.742 420.232 202.463 422.379 202.761C424.525 203.059 426.709 202.928 428.805 202.375C430.9 201.823 432.865 200.859 434.586 199.542L444.58 191.882C445.507 191.172 445.96 190.394 445.966 189.515C445.966 187.699 444.093 185.795 443.552 185.356C435.85 181.112 435.786 156.531 435.897 150.302H435.901Z" fill="#898888"/>
<path d="M412.713 163.392C412.713 163.392 407.147 163.264 404.598 159.044C402.049 154.823 402.978 147.735 399.104 142.913C394.84 137.601 399.533 129.772 404.686 128.335C416.182 125.126 412.645 119.276 417.575 116.79C423.191 113.96 425.737 119.448 432.79 119.563C441.344 119.705 448.073 122.042 447.562 132.238C446.974 143.924 451.687 153.082 438.264 157.299C429.893 159.899 421.357 161.935 412.713 163.392Z" fill="#545454"/>
<path d="M408.997 147.921C408.956 153.568 409.915 159.178 411.831 164.491C414.015 170.47 417.481 176.198 422.35 175.87C431.198 175.271 435.438 168.532 437.477 164.974C439.516 161.417 439.654 149.301 439.445 146.531C439.445 146.531 431.08 148.263 432.195 135.098C432.195 135.098 428.182 133.816 425.251 136.954C422.995 139.366 419.026 140.596 414.36 138.679C414.36 138.679 416.03 144.834 409.001 145.72L408.997 147.921Z" fill="white"/>
<path d="M421.601 176.716C417.577 176.716 413.959 172.614 411.092 164.772C410.754 163.859 410.321 162.899 409.858 161.878C408.989 159.974 408.093 158.006 407.772 156.112C407.749 156.008 407.748 155.901 407.768 155.796C407.788 155.692 407.829 155.593 407.888 155.505C407.947 155.417 408.024 155.342 408.114 155.284C408.203 155.227 408.303 155.188 408.408 155.17C408.513 155.152 408.62 155.156 408.723 155.181C408.826 155.206 408.923 155.252 409.008 155.316C409.093 155.38 409.165 155.46 409.218 155.552C409.271 155.644 409.305 155.746 409.317 155.851C409.601 157.542 410.457 159.416 411.282 161.232C411.758 162.277 412.211 163.261 412.563 164.234C414.152 168.583 417.533 175.786 422.236 175.106C427.058 174.43 429.746 172.513 431.886 170.781C431.966 170.717 432.058 170.668 432.157 170.639C432.255 170.61 432.358 170.601 432.461 170.612C432.563 170.622 432.662 170.653 432.752 170.702C432.842 170.752 432.922 170.818 432.987 170.898C433.051 170.978 433.1 171.07 433.129 171.168C433.158 171.267 433.167 171.37 433.156 171.472C433.146 171.575 433.115 171.674 433.066 171.764C433.017 171.854 432.95 171.934 432.87 171.999C430.568 173.862 427.673 175.915 422.456 176.655C422.173 176.696 421.887 176.716 421.601 176.716Z" fill="#898888"/>
<path d="M437.261 167.024C437.129 167.023 436.998 166.988 436.883 166.922C436.702 166.822 436.568 166.653 436.511 166.454C436.454 166.255 436.478 166.042 436.578 165.86C436.622 165.783 438.654 161.972 439.78 152.814C439.792 152.712 439.825 152.614 439.875 152.524C439.926 152.435 439.994 152.356 440.075 152.293C440.156 152.23 440.249 152.184 440.348 152.157C440.447 152.131 440.551 152.124 440.653 152.138C440.858 152.165 441.044 152.272 441.17 152.435C441.297 152.598 441.354 152.805 441.329 153.01C440.152 162.573 438.029 166.462 437.948 166.625C437.879 166.746 437.78 166.848 437.659 166.918C437.538 166.988 437.401 167.025 437.261 167.024Z" fill="#898888"/>
<path d="M333.51 595.034L333.511 595.009L333.509 594.984L331.783 571.772L346.361 573.825L343.773 595.062L343.769 595.092V595.122C343.769 597.357 342.137 599.115 340.163 599.174L337.355 599.255C337.355 599.255 337.355 599.255 337.354 599.255C335.246 599.31 333.445 597.422 333.51 595.034Z" fill="white" stroke="#898888"/>
<path d="M332.572 593.939C332.421 593.764 332.235 593.623 332.025 593.527C331.815 593.431 331.587 593.381 331.356 593.381C331.126 593.381 330.897 593.431 330.688 593.527C330.478 593.623 330.291 593.764 330.141 593.939C328.866 595.4 327.01 597.896 326.395 600.625C325.428 604.929 323.791 613.975 326.766 614.963C328.968 615.696 352.287 614.932 363.827 614.509C367.462 614.378 369.376 610.063 366.962 607.344C365.126 605.278 361.596 603.13 357.457 601.325C351.249 598.619 348.298 596.228 346.894 594.605C346.441 594.063 345.809 593.701 345.112 593.585C344.415 593.468 343.699 593.605 343.094 593.97L339.354 596.266C338.475 596.806 337.432 597.014 336.413 596.853C335.394 596.692 334.465 596.172 333.796 595.386L332.572 593.939Z" fill="white"/>
<path d="M333.824 616.034C329.649 616.034 327.208 615.922 326.518 615.695C323.853 614.809 323.556 609.676 325.632 600.441C326.271 597.611 328.117 595.057 329.551 593.414C329.775 593.157 330.051 592.952 330.362 592.811C330.672 592.669 331.009 592.596 331.349 592.596C331.693 592.596 332.032 592.672 332.343 592.817C332.654 592.961 332.93 593.172 333.152 593.434L334.376 594.868C334.922 595.514 335.683 595.943 336.519 596.075C337.355 596.207 338.211 596.034 338.93 595.588L342.67 593.292C343.433 592.831 344.335 592.656 345.215 592.801C346.096 592.945 346.895 593.399 347.471 594.08C348.756 595.568 351.582 597.905 357.756 600.597C362.233 602.551 365.705 604.756 367.531 606.812C368.17 607.527 368.59 608.41 368.741 609.357C368.892 610.303 368.768 611.273 368.383 612.152C368.006 613.054 367.377 613.828 366.572 614.383C365.767 614.938 364.819 615.249 363.842 615.28C350.067 615.783 340.029 616.034 333.824 616.034ZM331.349 594.155C331.232 594.154 331.116 594.18 331.009 594.229C330.902 594.278 330.807 594.349 330.731 594.439C329.652 595.673 327.755 598.138 327.16 600.783C325.213 609.439 325.683 613.765 327.011 614.208C327.708 614.437 332.678 614.853 363.802 613.714C364.482 613.691 365.142 613.474 365.702 613.087C366.263 612.701 366.7 612.161 366.963 611.533C367.234 610.928 367.322 610.257 367.219 609.603C367.115 608.948 366.823 608.338 366.378 607.847C364.688 605.96 361.421 603.894 357.148 602.03C350.703 599.22 347.68 596.711 346.304 595.101C345.971 594.701 345.506 594.433 344.993 594.345C344.48 594.257 343.952 594.355 343.505 594.621L339.765 596.921C338.728 597.563 337.495 597.811 336.291 597.621C335.086 597.43 333.99 596.813 333.202 595.883L331.978 594.445C331.902 594.355 331.807 594.282 331.699 594.232C331.592 594.181 331.475 594.155 331.356 594.155H331.349Z" fill="#898888"/>
<path d="M344.913 606.359C344.746 606.36 344.582 606.308 344.446 606.209C344.311 606.111 344.211 605.971 344.161 605.811C344.111 605.651 344.113 605.479 344.168 605.321C344.224 605.162 344.328 605.026 344.467 604.932L350.144 601.006C350.315 600.888 350.525 600.843 350.729 600.88C350.934 600.917 351.115 601.034 351.233 601.205C351.35 601.376 351.396 601.587 351.358 601.791C351.321 601.995 351.204 602.176 351.033 602.294L345.356 606.22C345.226 606.311 345.071 606.359 344.913 606.359Z" fill="#898888"/>
<path d="M364.842 473.655C364.842 473.655 352.693 577.924 352.69 577.93L329.022 577.038C327.974 575.506 325.84 491.561 328.38 479.062C330.385 469.174 335.872 440.431 335.872 440.431L366.441 431.033C366.441 431.033 365.231 456.575 364.842 473.655Z" fill="white"/>
<path d="M302.435 596.685L302.436 596.659L302.434 596.633L300.425 570.619L316.36 571.396L312.7 596.701L312.694 596.737V596.773C312.694 599.007 311.062 600.766 309.088 600.825L306.28 600.906C306.28 600.906 306.28 600.906 306.28 600.906C304.17 600.961 302.368 599.072 302.435 596.685Z" fill="white" stroke="#898888"/>
<path d="M301.502 595.586C301.352 595.41 301.165 595.27 300.955 595.174C300.746 595.077 300.518 595.027 300.287 595.027C300.056 595.027 299.828 595.077 299.618 595.174C299.408 595.27 299.222 595.41 299.071 595.586C297.793 597.046 295.94 599.542 295.325 602.271C294.358 606.576 292.721 615.622 295.693 616.609C297.898 617.343 321.218 616.579 332.758 616.156C336.392 616.024 338.306 611.709 335.888 608.99C334.056 606.924 330.526 604.777 326.387 602.971C320.18 600.266 317.228 597.875 315.825 596.252C315.371 595.71 314.739 595.348 314.042 595.231C313.345 595.115 312.63 595.251 312.024 595.616L308.281 597.912C307.403 598.453 306.361 598.661 305.342 598.501C304.323 598.34 303.396 597.821 302.726 597.036L301.502 595.586Z" fill="white"/>
<path d="M302.757 617.684C298.578 617.684 296.133 617.569 295.444 617.346C292.779 616.456 292.482 611.327 294.558 602.091C295.193 599.261 297.039 596.708 298.476 595.064C298.706 594.811 298.986 594.608 299.298 594.467C299.609 594.326 299.947 594.251 300.289 594.246C300.633 594.246 300.972 594.321 301.284 594.466C301.596 594.611 301.872 594.822 302.094 595.085L303.318 596.519C303.864 597.165 304.624 597.594 305.46 597.726C306.295 597.858 307.151 597.685 307.869 597.239L311.612 594.943C312.375 594.48 313.279 594.305 314.159 594.451C315.04 594.596 315.839 595.051 316.413 595.734C317.698 597.218 320.522 599.555 326.699 602.247C331.176 604.202 334.648 606.406 336.474 608.462C337.113 609.177 337.532 610.06 337.684 611.007C337.835 611.954 337.71 612.924 337.326 613.802C336.948 614.704 336.318 615.479 335.513 616.034C334.707 616.589 333.759 616.901 332.782 616.933C319 617.434 308.965 617.684 302.757 617.684ZM300.279 595.808C300.16 595.807 300.043 595.832 299.936 595.881C299.828 595.93 299.733 596.002 299.656 596.092C298.578 597.327 296.678 599.789 296.086 602.433C294.138 611.09 294.608 615.415 295.937 615.858C296.634 616.088 301.607 616.5 332.728 615.364C333.408 615.342 334.068 615.124 334.628 614.738C335.189 614.351 335.626 613.811 335.889 613.183C336.159 612.578 336.248 611.907 336.143 611.253C336.039 610.598 335.746 609.988 335.301 609.497C333.61 607.61 330.347 605.544 326.073 603.681C319.629 600.871 316.606 598.361 315.23 596.752C314.897 596.352 314.432 596.084 313.919 595.996C313.406 595.907 312.878 596.005 312.43 596.272L308.691 598.571C307.654 599.213 306.421 599.462 305.217 599.271C304.012 599.081 302.916 598.464 302.128 597.533L300.904 596.096C300.828 596.006 300.732 595.933 300.625 595.884C300.517 595.834 300.4 595.808 300.282 595.808H300.279Z" fill="#898888"/>
<path d="M313.839 608.009C313.671 608.011 313.507 607.958 313.372 607.86C313.236 607.761 313.136 607.621 313.086 607.461C313.036 607.301 313.039 607.13 313.094 606.971C313.149 606.813 313.254 606.677 313.392 606.582L319.066 602.656C319.237 602.549 319.443 602.512 319.641 602.552C319.838 602.593 320.013 602.708 320.128 602.874C320.243 603.04 320.289 603.244 320.258 603.443C320.226 603.643 320.119 603.822 319.959 603.945L314.282 607.871C314.152 607.961 313.997 608.01 313.839 608.009Z" fill="#898888"/>
<path d="M333.767 475.285L316.716 578.086L295.753 578.762C294.705 577.23 294.739 493.207 297.291 480.695C299.3 470.804 301.528 432.277 301.528 432.277L331.228 442.084C331.228 442.084 334.156 458.208 333.767 475.285Z" fill="white"/>
<path d="M299.607 478.172C299.447 478.173 299.29 478.124 299.158 478.032C299.027 477.94 298.927 477.81 298.872 477.659C298.817 477.508 298.809 477.344 298.851 477.189C298.892 477.034 298.98 476.896 299.103 476.792C307.14 470.029 311.276 463.459 311.752 456.706C311.757 456.602 311.783 456.501 311.828 456.408C311.873 456.315 311.937 456.232 312.015 456.164C312.093 456.096 312.184 456.045 312.282 456.013C312.381 455.981 312.484 455.969 312.587 455.979C312.69 455.986 312.79 456.013 312.881 456.059C312.973 456.105 313.055 456.169 313.122 456.246C313.189 456.324 313.241 456.414 313.273 456.511C313.305 456.609 313.318 456.712 313.311 456.814C312.807 464.013 308.489 470.939 300.125 477.99C299.98 478.111 299.796 478.176 299.607 478.172Z" fill="#898888"/>
<path d="M295.76 579.536C295.633 579.536 295.508 579.506 295.395 579.447C295.282 579.388 295.186 579.302 295.114 579.198C293.667 577.081 294.042 492.794 296.531 480.536C298.505 470.817 300.73 432.618 300.754 432.233C300.761 432.115 300.795 431.999 300.854 431.896C300.912 431.793 300.993 431.705 301.091 431.637C301.189 431.57 301.301 431.526 301.418 431.509C301.535 431.491 301.655 431.501 301.768 431.536L331.471 441.343C331.605 441.388 331.724 441.467 331.817 441.574C331.909 441.68 331.971 441.81 331.996 441.948C331.996 441.989 332.58 445.201 333.186 450.206C334.288 444.457 335.089 440.271 335.089 440.271C335.116 440.132 335.181 440.002 335.275 439.896C335.37 439.79 335.491 439.712 335.627 439.669L366.196 430.272C366.316 430.236 366.443 430.23 366.567 430.253C366.69 430.276 366.806 430.327 366.906 430.404C367.006 430.48 367.085 430.579 367.137 430.692C367.19 430.806 367.214 430.931 367.207 431.056C367.207 431.313 366 456.787 365.618 473.664C353.446 578.085 353.446 578.085 353.422 578.156C353.371 578.318 353.268 578.459 353.128 578.556C352.988 578.652 352.821 578.7 352.651 578.69L328.983 577.798C328.861 577.794 328.742 577.761 328.635 577.702C328.528 577.643 328.436 577.56 328.368 577.46C327.529 576.232 326.707 546.866 326.464 524.074C317.487 578.264 317.487 578.268 317.46 578.339C317.41 578.49 317.314 578.623 317.186 578.719C317.057 578.814 316.903 578.868 316.743 578.873L295.78 579.549L295.76 579.536ZM302.272 433.342C301.9 439.625 299.905 471.801 298.083 480.85C295.54 493.362 295.682 570.615 296.416 577.95L316.067 577.328C316.868 572.512 322.082 541.07 326.43 514.859C326.463 514.666 326.567 514.492 326.722 514.371C326.876 514.251 327.07 514.192 327.265 514.207C327.461 514.223 327.643 514.312 327.775 514.456C327.908 514.6 327.982 514.788 327.982 514.984C328.077 542.396 329.071 572.015 329.673 576.276L352.029 577.121C353.094 567.991 363.981 474.554 364.096 473.563C364.434 458.752 365.398 437.211 365.635 432.105L336.547 441.045C336.229 442.716 335.079 448.715 333.747 455.651C333.714 455.837 333.613 456.005 333.464 456.122C333.315 456.238 333.128 456.296 332.939 456.283C332.751 456.273 332.573 456.197 332.438 456.067C332.302 455.937 332.217 455.763 332.198 455.576C331.58 449.06 330.795 444.17 330.545 442.699L302.272 433.342Z" fill="#898888"/>
<path d="M364.169 356.264C372.091 362.751 378.287 363.126 386.522 363.625C388.066 363.719 389.681 363.817 391.393 363.96L391.411 363.961L391.428 363.962L391.435 363.462C391.428 363.962 391.428 363.962 391.428 363.962L391.429 363.962L391.431 363.962L391.438 363.962L391.467 363.962L391.576 363.963C391.672 363.963 391.811 363.964 391.989 363.963C392.344 363.961 392.852 363.956 393.462 363.938C394.682 363.903 396.32 363.823 397.981 363.638C399.637 363.454 401.343 363.163 402.689 362.7C403.362 362.469 403.97 362.186 404.441 361.834C404.898 361.492 405.261 361.057 405.387 360.51L416.577 334.384L416.579 334.38C418.218 330.458 420.64 326.912 423.697 323.959L432.568 316.305C433.641 315.381 435.182 316.684 434.442 317.898L434.442 317.898L431.463 322.788L431.199 323.222L431.637 323.479L431.89 323.048C431.637 323.479 431.637 323.479 431.637 323.479L431.637 323.479L431.638 323.479L431.639 323.48L431.643 323.483L431.658 323.491L431.713 323.523C431.761 323.551 431.83 323.59 431.915 323.637C432.084 323.73 432.32 323.857 432.583 323.989C433.086 324.24 433.766 324.548 434.27 324.627L434.27 324.628L434.278 324.629C435.256 324.767 436.252 324.691 437.198 324.405C438.142 324.12 439.012 323.633 439.749 322.978C440.559 322.279 441.616 321.378 442.577 320.586C443.551 319.782 444.393 319.121 444.789 318.88C444.985 318.76 445.184 318.635 445.386 318.507C445.876 318.197 446.387 317.874 446.936 317.595C447.702 317.206 448.466 316.945 449.208 316.961L449.208 316.961H449.219H449.266C449.577 316.97 449.879 317.064 450.139 317.235L450.413 316.817L450.139 317.235C450.401 317.406 450.61 317.647 450.743 317.93C450.876 318.214 450.927 318.529 450.891 318.84C450.854 319.151 450.732 319.445 450.538 319.691L450.538 319.691L446.663 324.584C443.916 328.051 440.133 330.55 435.867 331.716L427.204 334.084L427.204 334.084C426.325 334.324 425.536 334.82 424.937 335.507C424.339 336.194 423.956 337.043 423.838 337.947L423.838 337.947L420.176 366.068C420.176 366.069 420.176 366.069 420.176 366.07C419.29 372.485 417.019 377.58 413.944 379.942C409.859 383.063 403.695 384.555 396.662 384.997C389.644 385.438 381.838 384.83 374.537 383.817C367.24 382.806 360.464 381.393 355.511 380.233C353.035 379.653 351.016 379.136 349.616 378.765C348.991 378.599 348.49 378.462 348.127 378.362L364.169 356.264Z" fill="white" stroke="#898888"/>
<path d="M243.757 457.906C243.521 457.465 243.521 457.465 243.521 457.465L243.523 457.465L243.528 457.462L243.548 457.451L243.632 457.405C243.706 457.365 243.817 457.304 243.962 457.223C244.253 457.062 244.682 456.821 245.232 456.503C246.333 455.867 247.919 454.925 249.858 453.701C253.736 451.252 259.022 447.677 264.652 443.173C275.927 434.154 288.519 421.458 294.006 406.67L294.006 406.669C294.054 406.54 294.101 406.301 294.143 405.959C294.183 405.629 294.214 405.247 294.245 404.852L294.251 404.784C294.28 404.415 294.309 404.038 294.347 403.706C294.363 403.569 294.38 403.431 294.401 403.3C290.085 402.166 287.312 401.108 284.763 399.62C282.253 398.155 279.975 396.281 276.666 393.556C265.96 413.439 251.731 435.948 237.944 452.501L237.793 452.682L237.557 452.681L223.273 452.608L212.816 460.215C212.912 460.318 213.026 460.435 213.155 460.556C213.584 460.957 214.146 461.372 214.744 461.549C215.337 461.725 216.012 461.687 216.723 461.544C217.237 461.44 217.728 461.293 218.203 461.15C218.394 461.092 218.583 461.035 218.77 460.983C219.338 460.822 220.922 460.123 222.414 459.436C223.149 459.099 223.846 458.772 224.36 458.529C224.616 458.408 224.827 458.307 224.973 458.238L225.142 458.157L225.186 458.136L225.198 458.13L225.2 458.129L225.201 458.129L225.201 458.128L225.418 458.579L225.201 458.128L225.423 458.022L225.643 458.133C227.205 458.922 228.827 459.583 230.495 460.111L231.305 460.368L230.688 460.951C229.734 461.852 229.231 463.349 228.977 464.702C228.865 465.3 228.805 465.849 228.773 466.273L239.681 460.657L239.708 460.643L239.736 460.633C240.601 460.313 241.379 459.795 242.007 459.119C242.269 458.834 242.612 458.449 242.89 458.134C243.03 457.977 243.152 457.837 243.24 457.737L243.344 457.62L243.371 457.588L243.378 457.58L243.38 457.578L243.381 457.577L243.381 457.577L243.757 457.906ZM243.757 457.906L243.521 457.465L243.441 457.508L243.381 457.577L243.757 457.906Z" fill="white" stroke="#898888"/>
<path d="M277.009 392.182C276.921 392.106 276.816 392.052 276.704 392.024C276.591 391.995 276.474 391.992 276.36 392.016C276.247 392.038 276.139 392.086 276.046 392.155C275.953 392.224 275.877 392.313 275.823 392.415L277.009 392.182ZM277.009 392.182L277.364 392.472M277.009 392.182L295.197 402.184C286.382 399.912 284.11 398.038 277.364 392.472M277.364 392.472L277.047 392.859L277.069 392.877C280.42 395.642 282.704 397.527 285.255 398.997C287.822 400.476 290.642 401.527 295.072 402.668L295.073 402.669C295.111 402.678 295.146 402.696 295.177 402.72L295.485 402.326L295.177 402.72C295.207 402.744 295.233 402.774 295.251 402.808C295.27 402.843 295.281 402.88 295.284 402.919C295.287 402.958 295.282 402.997 295.269 403.034L295.258 403.066L295.251 403.1C295.133 403.683 295.061 404.274 295.035 404.868L295.035 404.872C295.01 405.577 294.904 406.277 294.72 406.958C289.394 421.283 277.368 433.718 266.31 442.762C255.257 451.802 245.23 457.405 243.998 458.072L243.919 458.115L243.86 458.183C243.624 458.452 242.989 459.171 242.566 459.638C241.868 460.389 241.008 460.969 240.051 461.335L240.025 461.345L240 461.358L228.362 467.35L228.362 467.35L228.35 467.356C228.313 467.377 228.271 467.389 228.228 467.392C228.157 467.39 228.09 467.361 228.039 467.311C227.986 467.259 227.956 467.189 227.955 467.115C227.955 467.025 227.957 466.124 228.145 464.958C228.336 463.771 228.712 462.357 229.439 461.244L229.786 460.712L229.188 460.499C227.975 460.067 226.786 459.568 225.629 459.003L225.412 458.897L225.194 459.001C224.563 459.303 223.274 459.914 222.004 460.488C220.717 461.071 219.5 461.592 218.985 461.737L218.98 461.738L218.449 461.894L218.447 461.894C217.183 462.272 215.792 462.673 214.525 462.3C213.806 462.087 213.154 461.615 212.661 461.163C212.418 460.94 212.221 460.728 212.083 460.57C212.014 460.49 211.96 460.425 211.923 460.377C211.888 460.334 211.869 460.309 211.866 460.305L211.866 460.304L211.866 460.304L211.861 460.297C211.838 460.267 211.822 460.233 211.813 460.196C211.804 460.16 211.802 460.122 211.808 460.085L211.808 460.081C211.814 460.046 211.826 460.012 211.845 459.981C211.863 459.951 211.888 459.924 211.917 459.904L211.917 459.904L211.922 459.9L222.945 451.878C222.946 451.877 222.946 451.877 222.946 451.877C222.995 451.842 223.054 451.823 223.114 451.823C223.115 451.823 223.115 451.822 223.116 451.822L237.19 451.897L237.427 451.898L237.578 451.716C250.162 436.552 264.245 415.049 276.263 392.651L276.264 392.65C276.283 392.613 276.311 392.581 276.344 392.556C276.378 392.531 276.416 392.514 276.457 392.506L276.461 392.505C276.501 392.497 276.541 392.498 276.58 392.508C276.619 392.518 276.655 392.537 276.686 392.563L276.686 392.563L276.692 392.568L277.046 392.858L277.364 392.472ZM225.404 458.298L225.412 458.298L225.419 458.298C225.465 458.298 225.51 458.309 225.55 458.331L225.55 458.331L225.56 458.336C227.129 459.125 228.757 459.787 230.431 460.317C230.477 460.332 230.519 460.359 230.553 460.395C230.586 460.432 230.609 460.476 230.62 460.524C230.631 460.572 230.63 460.623 230.615 460.67C230.601 460.717 230.575 460.76 230.539 460.794C229.886 461.415 229.449 462.288 229.155 463.162C228.859 464.042 228.692 464.965 228.605 465.729L228.499 466.658L229.331 466.23L239.767 460.858L239.817 460.836C240.711 460.506 241.515 459.97 242.164 459.272L242.167 459.269C242.432 458.98 242.777 458.593 243.055 458.279C243.194 458.122 243.317 457.983 243.405 457.883L243.509 457.765L243.537 457.733L243.544 457.725L243.546 457.723L243.546 457.722L243.547 457.722L243.171 457.392L243.547 457.722L243.552 457.716C243.572 457.693 243.596 457.674 243.623 457.659L243.629 457.656L243.631 457.655C243.878 457.521 253.768 452.149 264.964 443.158C276.17 434.159 288.748 421.482 294.218 406.751L294.23 406.718L294.238 406.683C294.372 406.065 294.451 405.436 294.475 404.804L294.478 404.774C294.514 404.323 294.546 403.921 294.59 403.577L294.646 403.143L294.223 403.03C290.046 401.919 287.375 400.888 284.951 399.485C282.517 398.077 280.315 396.284 277.07 393.608L276.601 393.221L276.312 393.757C264.294 416.054 250.276 437.359 237.776 452.362L237.774 452.364C237.748 452.396 237.715 452.421 237.678 452.439C237.641 452.456 237.601 452.465 237.561 452.466C237.56 452.466 237.56 452.466 237.559 452.466L223.363 452.388L223.199 452.387L223.066 452.484L212.947 459.849L212.482 460.188L212.881 460.601C213.376 461.112 213.982 461.502 214.653 461.739L214.666 461.744L214.679 461.748C215.279 461.924 215.921 461.893 216.524 461.79C217.119 461.689 217.722 461.51 218.256 461.351L218.279 461.345L218.28 461.345C218.325 461.331 218.369 461.318 218.412 461.305C218.559 461.261 218.692 461.221 218.821 461.186L218.827 461.184C219.351 461.036 220.626 460.48 221.903 459.899C223.196 459.312 224.549 458.671 225.279 458.321C225.318 458.305 225.361 458.297 225.404 458.298Z" fill="white" stroke="#898888"/>
<path d="M376.372 355.576C375.99 355.363 375.591 355.153 375.179 354.953C374.766 354.754 374.344 354.497 373.908 354.237L373.813 354.348C357.763 347.801 322.44 351.156 307.167 355.86C300.439 357.929 297.659 358.903 295.171 360.378L295.056 360.039C286.471 364.476 272.483 383.034 260.906 404.616C268.047 410.51 282.63 416.719 291.766 419.072C293.559 415.667 295.036 412.105 296.178 408.43C296.212 409.039 296.249 409.651 296.303 410.263L299.972 452.195C345.198 464.031 368.271 447.434 368.271 447.434L370.256 403.077C370.462 398.517 370.992 393.978 371.842 389.493C377.252 389.757 382.793 389.527 387.821 388.414L396.984 359.911C388.582 358.037 383.983 359.38 376.372 355.576Z" fill="white"/>
<path d="M330.827 457.203C321.975 457.203 311.605 456.057 299.758 452.952C299.604 452.911 299.466 452.825 299.362 452.704C299.259 452.583 299.194 452.434 299.176 452.276L295.677 412.261C294.748 414.724 293.667 417.126 292.441 419.454C292.359 419.61 292.227 419.734 292.066 419.805C291.906 419.876 291.725 419.891 291.555 419.846C282.145 417.422 267.549 411.149 260.394 405.238C260.255 405.123 260.159 404.963 260.124 404.785C260.089 404.608 260.116 404.424 260.202 404.264C272.228 381.854 286.091 363.81 294.689 359.363C294.787 359.312 294.895 359.282 295.005 359.276C295.115 359.269 295.225 359.286 295.328 359.326L295.382 359.349C297.793 358.031 300.708 357.026 306.929 355.109C322.875 350.202 357.447 347.094 373.73 353.472C373.926 353.43 374.129 353.463 374.302 353.563C374.728 353.82 375.137 354.044 375.546 354.267C375.955 354.49 376.337 354.666 376.729 354.886C381.392 357.209 384.895 357.554 388.949 357.949C391.702 358.172 394.437 358.572 397.138 359.146C397.245 359.171 397.346 359.217 397.434 359.282C397.522 359.348 397.596 359.431 397.65 359.527C397.704 359.622 397.738 359.728 397.748 359.837C397.759 359.946 397.747 360.057 397.713 360.161L388.547 388.665C388.505 388.794 388.43 388.911 388.329 389.003C388.228 389.095 388.105 389.159 387.972 389.189C383.502 390.176 378.288 390.558 372.469 390.315C371.7 394.547 371.215 398.827 371.019 403.124L369.044 447.471C369.037 447.59 369.003 447.705 368.944 447.809C368.886 447.913 368.804 448.002 368.706 448.069C368.54 448.194 355.641 457.2 330.827 457.203ZM300.687 451.576C341.937 462.218 364.635 448.85 367.496 447.004L369.463 403.043C369.67 398.446 370.205 393.869 371.063 389.348C371.1 389.163 371.202 388.998 371.35 388.881C371.498 388.765 371.683 388.705 371.871 388.712C377.636 388.993 382.788 388.668 387.201 387.745L395.965 360.496C393.598 360.036 391.207 359.707 388.804 359.508C384.591 359.096 380.949 358.741 376.019 356.279L375.986 356.259C375.62 356.052 375.238 355.849 374.839 355.66C374.501 355.474 374.187 355.302 373.866 355.119C373.751 355.13 373.635 355.114 373.528 355.072C358.272 348.849 323.443 351.67 307.406 356.607C300.772 358.636 297.986 359.627 295.572 361.05C295.471 361.111 295.358 361.148 295.241 361.158C295.124 361.169 295.006 361.153 294.896 361.111L294.814 361.077C286.608 365.812 273.246 383.396 261.885 404.433C268.888 409.962 282.308 415.744 291.342 418.172C292.978 414.976 294.335 411.644 295.399 408.214C295.455 408.039 295.569 407.888 295.724 407.789C295.878 407.69 296.062 407.647 296.245 407.669C296.425 407.693 296.592 407.78 296.715 407.914C296.839 408.048 296.911 408.221 296.921 408.403C296.955 409.008 296.992 409.61 297.046 410.212L300.687 451.576Z" fill="#898888"/>
<path d="M327.662 336.997C323.53 338.688 319.99 340.095 315.307 339.551C314.509 339.456 304.534 338.171 303.158 332.016C302.553 329.311 303.855 326.826 304.649 325.574C301.373 325.084 299.155 322.267 299.399 319.487C299.581 317.357 301.184 315.453 303.432 314.692C301.955 313.221 299.564 310.347 298.945 306.313C297.431 296.459 307.946 289.182 310.211 287.714C312.889 285.989 319.185 281.938 324.946 284.532C327.624 285.736 329.193 287.913 330.018 289.368C331.271 288.174 332.757 287.252 334.383 286.662C340.865 284.359 348.584 288.089 352.449 293.365C353.372 294.623 355.735 297.842 355.4 301.886C355.123 305.234 353.186 306.84 350.778 310.492C346.383 317.134 348.297 318.666 344.929 324.07C340.05 331.915 332.003 335.202 327.662 336.997Z" fill="#545454"/>
<path d="M317.332 340.449C316.625 340.45 315.918 340.409 315.216 340.328C314.06 340.192 303.876 338.816 302.395 332.185C301.884 329.899 302.581 327.731 303.443 326.098C300.461 325.161 298.371 322.361 298.618 319.416C298.734 318.358 299.113 317.345 299.721 316.471C300.329 315.597 301.145 314.889 302.097 314.411C300.044 312.188 298.681 309.417 298.172 306.434C296.63 296.394 306.675 289.069 309.789 287.064C312.582 285.268 319.121 281.062 325.268 283.828C327.297 284.771 329.011 286.281 330.201 288.177C331.369 287.206 332.698 286.447 334.127 285.935C341.257 283.402 349.213 287.625 353.081 292.911C354.028 294.199 356.544 297.625 356.182 301.96C355.959 304.665 354.728 306.339 353.173 308.47C352.645 309.187 352.05 310.001 351.435 310.931C349.152 314.394 348.632 316.416 348.128 318.371C347.644 320.541 346.788 322.61 345.599 324.488C340.581 332.543 332.362 335.911 327.966 337.721C324.555 339.117 321.309 340.449 317.332 340.449ZM320.92 284.477C316.693 284.477 312.629 287.094 310.638 288.376C308.562 289.729 298.283 296.85 299.72 306.194C300.153 309.028 301.63 311.773 303.987 314.13C304.081 314.225 304.149 314.342 304.185 314.47C304.221 314.598 304.224 314.733 304.194 314.862C304.163 314.992 304.1 315.111 304.011 315.21C303.922 315.309 303.809 315.383 303.683 315.426C301.742 316.082 300.332 317.739 300.177 319.548C299.964 322.033 302.019 324.387 304.765 324.799C304.893 324.819 305.015 324.871 305.119 324.949C305.223 325.028 305.305 325.131 305.359 325.249C305.413 325.368 305.437 325.498 305.428 325.627C305.419 325.757 305.379 325.883 305.309 325.993C304.403 327.427 303.422 329.608 303.919 331.843C305.191 337.514 314.979 338.721 315.415 338.772C319.997 339.306 323.419 337.9 327.381 336.273C331.631 334.532 339.536 331.285 344.287 323.663C345.394 321.92 346.187 319.996 346.63 317.979C347.164 315.899 347.722 313.745 350.147 310.066C350.782 309.102 351.387 308.273 351.925 307.54C353.447 305.46 354.454 304.087 354.63 301.828C354.941 298.075 352.679 294.994 351.827 293.834C348.243 288.948 340.842 285.208 334.657 287.409C333.131 287.959 331.736 288.823 330.563 289.945C330.477 290.026 330.374 290.086 330.262 290.121C330.149 290.156 330.03 290.165 329.914 290.148C329.796 290.132 329.684 290.089 329.586 290.022C329.488 289.955 329.407 289.866 329.349 289.763C328.122 287.625 326.536 286.107 324.615 285.251C323.453 284.733 322.193 284.469 320.92 284.477Z" fill="#898888"/>
<path d="M324.761 335.652L324.721 335.448L324.548 335.333C322.443 333.932 320.83 332.345 319.849 330.807C318.861 329.261 318.551 327.833 318.905 326.7L318.905 326.7L318.907 326.693C319.146 325.889 319.668 325.199 320.377 324.751C321.426 324.146 322.771 324.318 323.95 324.717C324.527 324.911 325.034 325.15 325.397 325.341C325.577 325.436 325.721 325.519 325.819 325.577C325.867 325.606 325.905 325.628 325.929 325.644L325.955 325.66L325.961 325.664L325.962 325.665L325.962 325.665C325.962 325.665 325.962 325.665 325.962 325.664L326.672 325.002C325.322 322.586 325.556 321.501 325.851 320.983C326.056 320.627 326.365 320.417 326.828 320.276C327.315 320.128 327.919 320.072 328.68 320.002L328.684 320.002C330.179 319.864 332.108 319.68 334.129 318.457L334.129 318.457C335.528 317.609 336.166 316.75 336.775 315.877C336.807 315.832 336.838 315.788 336.869 315.743C337.429 314.938 337.995 314.125 339.19 313.2L339.19 313.2C341.505 311.41 344.279 310.689 347.036 310.524C347.73 311.367 348.336 312.278 348.845 313.244L348.846 313.245C349.796 315.037 350.143 316.531 350.371 318.197C350.443 318.718 350.503 319.265 350.567 319.846C350.707 321.112 350.865 322.542 351.194 324.232C351.759 327.136 352.383 328.469 352.851 329.469L352.853 329.474C353.084 329.967 353.254 330.336 353.367 330.77C353.479 331.198 353.54 331.711 353.515 332.469C353.461 334.019 352.991 339.391 348.492 342.207L348.492 342.207C345.169 344.287 341.618 343.75 340.527 343.54L339.986 343.435L339.935 343.984L339.84 344.998C339.749 345.968 339.95 346.944 340.416 347.799C340.882 348.654 341.592 349.351 342.456 349.8C342.457 349.8 342.457 349.8 342.457 349.8L347.114 352.239C347.1 352.356 347.03 352.602 346.697 352.942C346.005 353.647 344.25 354.682 339.959 355.666C335.745 356.633 329.669 356.212 324.593 355.529C322.067 355.19 319.807 354.788 318.179 354.472C317.757 354.39 317.378 354.313 317.047 354.245C317.284 354.121 317.545 353.977 317.827 353.809C319.144 353.025 320.9 351.743 322.683 349.74C324.554 347.638 325.089 344.29 325.166 341.463C325.243 338.608 324.856 336.136 324.761 335.652Z" fill="white" stroke="#898888"/>
<path d="M448.383 308.301C448.383 308.301 429.37 304.889 421.972 309.654C415.474 313.84 423.528 315.704 428.606 314.78C429.446 314.621 430.301 314.551 431.156 314.571C433.093 314.628 433.908 317.276 432.285 318.213C425.736 322.051 412.143 330.332 413.012 332.466C413.881 334.6 418.47 334.85 424.231 332.395C424.919 332.113 425.661 331.99 426.402 332.035C427.144 332.079 427.866 332.29 428.515 332.652C431.244 334.123 436.167 336.034 440.349 333.748C445.806 330.748 453.803 320.62 453.803 320.62C453.803 320.62 469.873 317.868 498.211 298.187C507.874 291.478 510.43 286.635 498.985 279.003C489.815 272.892 482.262 278.445 481.481 278.966C478.411 281.015 473.423 285.776 472.314 289.391C471.243 292.827 466.651 299.533 448.383 308.301Z" fill="white"/>
<path d="M436.026 335.591C432.916 335.591 429.964 334.326 428.135 333.342C427.59 333.035 426.983 332.855 426.359 332.816C425.734 332.777 425.109 332.879 424.53 333.115C420.297 334.918 416.416 335.428 414.11 334.468C413.704 334.321 413.332 334.092 413.017 333.797C412.702 333.502 412.45 333.146 412.277 332.75C411.915 331.847 411.067 329.734 431.888 317.533C432.084 317.415 432.234 317.234 432.315 317.02C432.395 316.806 432.401 316.57 432.331 316.353C432.271 316.075 432.122 315.825 431.905 315.641C431.689 315.458 431.417 315.351 431.134 315.338C430.334 315.319 429.534 315.383 428.747 315.531C425.268 316.17 419.844 315.595 418.908 313.228C418.377 311.875 419.266 310.452 421.552 308.981C428.74 304.348 445.896 307.063 448.263 307.469C466.281 298.785 470.578 292.252 471.539 289.144C472.732 285.262 477.902 280.376 481.006 278.299L481.09 278.242C483.795 276.402 490.963 272.726 499.379 278.337C504.758 281.921 507.277 285.042 507.308 288.163C507.345 292.194 503.152 295.664 498.618 298.812C472.211 317.154 456.58 320.837 454.197 321.317C452.935 322.886 445.822 331.593 440.672 334.417C439.247 335.195 437.649 335.598 436.026 335.591ZM426.069 331.238C427.05 331.243 428.014 331.492 428.875 331.962C431.343 333.291 436.067 335.202 439.959 333.061C445.213 330.173 453.094 320.235 453.172 320.133C453.292 319.982 453.465 319.88 453.656 319.849C453.815 319.822 469.929 316.867 497.749 297.531C503.392 293.615 505.79 290.818 505.766 288.184C505.739 285.661 503.375 282.868 498.534 279.642C490.909 274.569 484.431 277.877 481.996 279.537L481.898 279.605C478.855 281.634 474.081 286.243 473.047 289.611C471.779 293.733 466.531 300.432 448.723 308.994C448.575 309.066 448.408 309.088 448.246 309.058C448.06 309.025 429.45 305.755 422.397 310.299C420.656 311.422 420.206 312.251 420.368 312.667C420.811 313.789 424.896 314.655 428.483 314.019C429.375 313.853 430.281 313.78 431.188 313.799C431.81 313.821 432.407 314.045 432.889 314.44C433.37 314.834 433.709 315.375 433.852 315.981C434.01 316.527 433.981 317.111 433.77 317.639C433.56 318.167 433.179 318.61 432.689 318.899C418.093 327.454 413.937 331.286 413.755 332.236C413.959 332.617 414.302 332.905 414.712 333.041C416.186 333.653 419.381 333.619 423.922 331.688C424.6 331.395 425.33 331.242 426.069 331.238Z" fill="#898888"/>
<path d="M273.567 358.687C267.765 358.687 255.173 355.306 242.122 349.219C223.847 340.697 192.507 321.337 187.99 287.403C187.977 287.204 188.039 287.007 188.165 286.853C188.292 286.699 188.472 286.598 188.669 286.572C188.867 286.546 189.067 286.596 189.229 286.712C189.391 286.828 189.503 287.001 189.542 287.197C193.968 320.404 224.804 339.415 242.792 347.792C259.359 355.515 273.151 358.035 275.443 356.902L281.685 349.259C276.13 344.552 233.162 308.075 224.794 299.695C222.765 297.666 222.579 289.486 222.532 278.144C222.532 274.485 222.505 271.043 222.353 268.588C222.34 268.38 222.41 268.177 222.547 268.021C222.684 267.865 222.878 267.77 223.085 267.757C223.292 267.744 223.496 267.814 223.651 267.952C223.807 268.089 223.902 268.282 223.915 268.49C224.07 270.978 224.084 274.458 224.097 278.137C224.131 286.04 224.175 296.861 225.9 298.589C234.758 307.449 282.791 348.14 283.274 348.552C283.43 348.685 283.529 348.874 283.548 349.078C283.566 349.282 283.505 349.486 283.376 349.645L276.576 358.004C276.522 358.067 276.46 358.122 276.39 358.166C275.826 358.535 274.865 358.687 273.567 358.687Z" fill="#898888"/>
<path d="M310.5 355.555C310.209 355.678 309.908 355.775 309.6 355.846C308.63 356.076 307.592 356.056 306.676 356.455C305.759 356.854 304.985 357.912 305.398 358.822C309.336 359.613 313.231 360.594 317.083 361.764C317.999 362.041 319.054 362.478 319.267 363.411C319.494 364.425 318.591 365.301 317.715 365.859C310.892 370.225 301.888 368.625 294.311 365.761C289.29 363.864 282.957 361.534 278.835 357.983C274.558 354.308 277.977 352.979 281.54 349.813C282.047 349.364 292.61 351.453 293.932 351.457C300.07 351.484 306.206 351.61 312.339 351.836C312.884 351.856 313.614 352.079 313.546 352.62C312.927 353.941 311.842 354.986 310.5 355.555Z" fill="white"/>
<path d="M307.678 369.356C303.643 369.356 299.099 368.403 294.045 366.498L293.599 366.329C288.625 364.452 282.441 362.116 278.337 358.589C276.775 357.236 276.054 356.076 276.075 354.913C276.098 353.269 277.593 352.062 279.324 350.665C279.882 350.219 280.453 349.756 281.038 349.238C281.522 348.806 282.303 348.826 289.491 350.019C291.462 350.358 293.501 350.696 293.951 350.696C299.946 350.719 306.147 350.848 312.381 351.075C312.72 351.075 313.558 351.176 314.042 351.751C314.158 351.887 314.244 352.047 314.295 352.218C314.346 352.39 314.361 352.571 314.339 352.748C314.328 352.828 314.305 352.905 314.271 352.978C313.567 354.472 312.337 355.653 310.816 356.296C310.487 356.435 310.148 356.548 309.802 356.634C309.406 356.725 309.01 356.779 308.628 356.833C308.073 356.875 307.526 356.993 307.002 357.182C306.62 357.35 306.315 357.654 306.143 358.034C306.125 358.08 306.11 358.128 306.099 358.176C309.876 358.954 313.649 359.911 317.328 361.027C317.977 361.226 319.695 361.75 320.033 363.252C320.297 364.418 319.624 365.582 318.143 366.529C315.181 368.412 311.678 369.356 307.678 369.356ZM281.927 350.537C281.37 351.027 280.829 351.463 280.308 351.89C278.823 353.083 277.654 354.03 277.637 354.933C277.637 355.579 278.208 356.407 279.358 357.398C283.253 360.746 289.295 363.029 294.15 364.861L294.6 365.03C304.182 368.649 311.82 368.71 317.304 365.196C317.642 364.99 318.657 364.266 318.515 363.583C318.39 363.032 317.5 362.707 316.868 362.511C313.064 361.358 309.159 360.374 305.254 359.589C305.131 359.565 305.016 359.51 304.918 359.432C304.82 359.353 304.743 359.251 304.693 359.136C304.579 358.869 304.521 358.581 304.521 358.291C304.521 358 304.579 357.713 304.693 357.446C305.016 356.679 305.621 356.065 306.383 355.731C307.034 355.477 307.717 355.315 308.412 355.251C308.774 355.2 309.115 355.156 309.426 355.078C309.69 355.017 309.948 354.932 310.197 354.825C311.225 354.389 312.084 353.632 312.645 352.667C312.534 352.64 312.421 352.624 312.307 352.62C306.086 352.393 299.902 352.282 293.924 352.245C293.376 352.245 291.777 351.981 289.214 351.568C286.81 351.162 282.861 350.52 281.914 350.537H281.927Z" fill="#898888"/>
<path d="M420.664 24.3305C420.619 24.3339 420.574 24.3339 420.529 24.3305L416.093 23.546C415.888 23.5101 415.706 23.3945 415.587 23.2245C415.468 23.0546 415.421 22.8442 415.457 22.6397C415.493 22.4352 415.609 22.2534 415.779 22.1341C415.948 22.0149 416.159 21.9681 416.363 22.004L420.799 22.7885C420.994 22.8201 421.169 22.9241 421.291 23.0797C421.412 23.2353 421.469 23.4309 421.452 23.6274C421.435 23.8238 421.344 24.0065 421.198 24.1388C421.052 24.2711 420.861 24.3432 420.664 24.3407V24.3305Z" fill="#898888"/>
<path d="M441.914 28.0903C441.869 28.0953 441.824 28.0953 441.779 28.0903L437.343 27.3057C437.242 27.288 437.145 27.2504 437.058 27.1953C436.971 27.1401 436.896 27.0684 436.837 26.9843C436.778 26.9001 436.736 26.8052 436.714 26.7048C436.692 26.6045 436.689 26.5007 436.707 26.3995C436.725 26.2982 436.762 26.2015 436.818 26.1147C436.873 26.028 436.944 25.9529 437.029 25.8939C437.113 25.8349 437.208 25.793 437.308 25.7707C437.408 25.7483 437.512 25.746 437.613 25.7637L442.049 26.5483C442.241 26.5842 442.412 26.6899 442.529 26.845C442.647 27.0001 442.703 27.1934 442.686 27.3873C442.669 27.5812 442.581 27.762 442.438 27.8944C442.295 28.0268 442.109 28.1014 441.914 28.1038V28.0903Z" fill="#898888"/>
<path d="M426.787 38.5835C426.741 38.5883 426.694 38.5883 426.648 38.5835C426.547 38.5656 426.451 38.5279 426.364 38.4726C426.278 38.4174 426.203 38.3456 426.144 38.2614C426.086 38.1773 426.044 38.0824 426.022 37.9821C426 37.8819 425.998 37.7783 426.016 37.6773L426.807 33.2812C426.825 33.1801 426.863 33.0837 426.918 32.9972C426.973 32.9107 427.045 32.836 427.129 32.7773C427.214 32.7186 427.308 32.677 427.409 32.655C427.509 32.6329 427.612 32.6308 427.713 32.6488C427.814 32.6668 427.911 32.7045 427.997 32.7598C428.084 32.8151 428.158 32.8868 428.217 32.971C428.276 33.0551 428.317 33.15 428.34 33.2503C428.362 33.3505 428.364 33.4541 428.346 33.5551L427.558 37.9512C427.523 38.1296 427.426 38.2903 427.286 38.4056C427.145 38.521 426.969 38.5839 426.787 38.5835Z" fill="#898888"/>
<path d="M430.568 17.4624C430.522 17.4672 430.476 17.4672 430.43 17.4624C430.329 17.4445 430.232 17.4068 430.146 17.3515C430.059 17.2963 429.984 17.2245 429.926 17.1403C429.867 17.0562 429.825 16.9613 429.803 16.861C429.781 16.7608 429.779 16.6572 429.797 16.5562L430.588 12.1601C430.606 12.0591 430.644 11.9626 430.699 11.8761C430.755 11.7896 430.826 11.7149 430.911 11.6562C430.995 11.5975 431.09 11.5559 431.19 11.5339C431.29 11.5118 431.394 11.5097 431.495 11.5277C431.596 11.5457 431.692 11.5834 431.779 11.6387C431.865 11.694 431.94 11.7657 431.998 11.8499C432.057 11.934 432.099 12.0289 432.121 12.1292C432.143 12.2294 432.145 12.333 432.127 12.434L431.339 16.8301C431.304 17.0085 431.208 17.1692 431.067 17.2845C430.926 17.3999 430.75 17.4628 430.568 17.4624Z" fill="#898888"/>
<path d="M5.55476 371.24C5.50868 371.245 5.4622 371.245 5.41613 371.24L0.980062 370.455C0.879048 370.437 0.782565 370.399 0.696121 370.344C0.609678 370.289 0.534967 370.217 0.476255 370.133C0.417543 370.049 0.375979 369.954 0.353937 369.854C0.331894 369.753 0.329804 369.65 0.347787 369.549C0.36577 369.448 0.403473 369.351 0.458743 369.265C0.514014 369.178 0.585769 369.104 0.669913 369.045C0.754056 368.986 0.84894 368.945 0.949147 368.923C1.04935 368.9 1.15292 368.898 1.25394 368.916L5.69 369.694C5.88462 369.726 6.06011 369.83 6.18123 369.985C6.30235 370.141 6.36016 370.337 6.34304 370.533C6.32592 370.73 6.23515 370.912 6.08894 371.045C5.94273 371.177 5.7519 371.249 5.55476 371.246V371.24Z" fill="#898888"/>
<path d="M26.804 374.997C26.7579 375 26.7116 375 26.6654 374.997L22.2293 374.212C22.0352 374.165 21.8661 374.046 21.7568 373.879C21.6475 373.712 21.6061 373.509 21.641 373.312C21.6759 373.116 21.7846 372.94 21.9448 372.82C22.1051 372.701 22.3048 372.647 22.5032 372.67L26.9393 373.455C27.1339 373.486 27.3094 373.59 27.4305 373.746C27.5516 373.902 27.6094 374.097 27.5923 374.294C27.5752 374.49 27.4844 374.673 27.3382 374.805C27.192 374.937 27.0012 375.009 26.804 375.007V374.997Z" fill="#898888"/>
<path d="M11.6742 385.493C11.6281 385.498 11.5817 385.498 11.5356 385.493C11.4344 385.476 11.3376 385.438 11.2509 385.383C11.1642 385.328 11.0893 385.256 11.0305 385.172C10.9717 385.088 10.9302 384.992 10.9084 384.892C10.8866 384.792 10.8848 384.688 10.9033 384.587L11.6911 380.191C11.7034 380.084 11.7373 379.982 11.7907 379.889C11.8442 379.796 11.916 379.715 12.0019 379.651C12.0877 379.587 12.1857 379.542 12.2899 379.517C12.3941 379.493 12.5022 379.489 12.6076 379.508C12.713 379.527 12.8134 379.567 12.9027 379.626C12.992 379.685 13.0683 379.762 13.1269 379.851C13.1855 379.941 13.2251 380.041 13.2433 380.147C13.2616 380.252 13.258 380.361 13.2329 380.465L12.4451 384.861C12.4092 385.039 12.3129 385.199 12.1724 385.314C12.0319 385.43 11.8559 385.493 11.6742 385.493Z" fill="#898888"/>
<path d="M15.4557 364.371C15.4096 364.376 15.3632 364.376 15.3171 364.371C15.2158 364.353 15.1191 364.316 15.0324 364.261C14.9457 364.206 14.8708 364.134 14.812 364.05C14.7532 363.965 14.7117 363.87 14.6899 363.77C14.6681 363.67 14.6663 363.566 14.6848 363.465L15.4726 359.069C15.4849 358.962 15.5188 358.86 15.5722 358.767C15.6257 358.674 15.6975 358.593 15.7834 358.529C15.8692 358.465 15.9672 358.42 16.0714 358.395C16.1756 358.37 16.2837 358.367 16.3891 358.386C16.4945 358.405 16.5949 358.445 16.6842 358.504C16.7735 358.563 16.8498 358.64 16.9084 358.729C16.967 358.819 17.0066 358.919 17.0248 359.025C17.0431 359.13 17.0395 359.238 17.0144 359.343L16.2266 363.739C16.1907 363.917 16.0944 364.077 15.9539 364.192C15.8134 364.308 15.6374 364.371 15.4557 364.371Z" fill="#898888"/>
<path d="M393.612 17.8848C391.663 17.8831 389.768 17.2456 388.214 16.0689C386.661 14.8922 385.533 13.2407 385.003 11.365C384.685 10.2392 384.595 9.06129 384.737 7.90009C384.879 6.73889 385.252 5.61766 385.832 4.60183C387.007 2.5492 388.944 1.04292 391.223 0.40984C393.502 -0.223244 395.938 0.0679446 398.004 1.22022C399.027 1.78965 399.927 2.55592 400.652 3.47486C401.378 4.39379 401.914 5.44723 402.231 6.57446C402.547 7.70169 402.637 8.88043 402.496 10.0427C402.355 11.205 401.986 12.3279 401.409 13.3467C400.626 14.7249 399.492 15.871 398.123 16.6682C396.753 17.4654 395.196 17.8852 393.612 17.8848ZM393.639 1.65306C392.332 1.64743 391.046 1.98879 389.914 2.64228C388.782 3.29578 387.843 4.23802 387.194 5.37283C386.719 6.21234 386.414 7.13768 386.298 8.09551C386.182 9.05335 386.256 10.0247 386.517 10.9536C386.778 11.8826 387.22 12.7506 387.818 13.5079C388.416 14.2651 389.158 14.8964 390.001 15.3655C391.706 16.317 393.716 16.5599 395.599 16.0418C397.481 15.5236 399.085 14.286 400.063 12.596C400.538 11.7564 400.842 10.8311 400.958 9.87353C401.073 8.91592 400.999 7.94486 400.737 7.01632C400.476 6.08777 400.034 5.22009 399.436 4.46328C398.838 3.70647 398.096 3.07548 397.253 2.60668C396.15 1.98313 394.906 1.65359 393.639 1.64968V1.65306Z" fill="#898888"/>
</g>
</svg>
